<svg xmlns:xlink="http://www.w3.org/1999/xlink" xmlns="http://www.w3.org/2000/svg" width="49.495" height="49.679"
     viewBox="0 0 49.495 49.679">
  <defs>
    <radialGradient id="prefix__radial-gradient" cx=".229" cy=".299" r=".996" gradientTransform="translate(-.002)"
                    gradientUnits="objectBoundingBox">
      <stop offset="0" stop-color="#fff"/>
      <stop offset=".235" stop-color="#b1b1b1"/>
      <stop offset=".383" stop-color="#9fa1a4"/>
      <stop offset=".571" stop-color="#e5e6e8"/>
      <stop offset=".704" stop-color="#fff"/>
      <stop offset=".924" stop-color="#9fa1a4"/>
    </radialGradient>
    <radialGradient id="prefix__radial-gradient-2" cx=".505" cy=".503" r=".595" gradientTransform="translate(-.002)"
                    gradientUnits="objectBoundingBox">
      <stop offset="0" stop-color="#15ffff"/>
      <stop offset=".342" stop-color="#0dbce9"/>
      <stop offset=".794" stop-color="#0468ce"/>
      <stop offset="1" stop-color="#0047c3"/>
    </radialGradient>
    <radialGradient id="prefix__radial-gradient-3" cx=".5" cy=".5" r=".499" gradientTransform="translate(-.002)"
                    gradientUnits="objectBoundingBox">
      <stop offset="0" stop-color="#006c6c"/>
      <stop offset=".632" stop-color="#002b57"/>
      <stop offset="1" stop-color="#000a4c"/>
    </radialGradient>
    <radialGradient id="prefix__radial-gradient-4" cx=".504" cy=".503" r=".595"
                    xlink:href="#prefix__radial-gradient-3"/>
    <radialGradient id="prefix__radial-gradient-5" cx="1.094" cy="1.236" r="1.011"
                    xlink:href="#prefix__radial-gradient-3"/>
  </defs>
  <g id="prefix__XMLID_2696_" transform="translate(-76.972 -61.97)">
    <g id="prefix__XMLID_2762_" transform="translate(76.972 61.97)">
      <g id="prefix__XMLID_2763_">
        <path id="prefix__XMLID_2764_" fill="url(#prefix__radial-gradient)"
              d="M101.728 111.649a25.44 25.44 0 0 1-21.643-12.016l-.1-.182a25.444 25.444 0 0 1 .407-24.74l.008-.011a25.439 25.439 0 0 1 21.219-12.723h.2a25.491 25.491 0 0 1 21.636 37.477l-.1.182a25.428 25.428 0 0 1-21.627 12.013zm-16.44-15.141a19.422 19.422 0 0 0 32.871 0 19.42 19.42 0 0 0-16.434-28.464 19.42 19.42 0 0 0-16.437 28.464z"
              transform="translate(-76.972 -61.97)"/>
      </g>
      <path id="prefix__XMLID_2767_" fill="url(#prefix__radial-gradient-2)"
            d="M108.838 114.831a21.393 21.393 0 0 1-18.19-10.1l-.089-.154A21.378 21.378 0 0 1 90.9 83.8l.007-.011a21.369 21.369 0 0 1 17.83-10.691h.178a21.419 21.419 0 0 1 18.18 31.492l-.089.154a21.358 21.358 0 0 1-18.168 10.087z"
            transform="translate(-84.081 -69.119)"/>
      <path id="prefix__XMLID_2768_" fill="url(#prefix__radial-gradient-3)"
            d="M104.2 111.292a16.321 16.321 0 0 0 27.621 0 16.322 16.322 0 0 0-13.807-23.922 16.319 16.319 0 0 0-13.814 23.922z"
            opacity="0.6" transform="translate(-93.268 -78.3)"/>
      <path id="prefix__XMLID_2769_" fill="url(#prefix__radial-gradient-4)"
            d="M126.09 122.528a11.534 11.534 0 0 1-9.809-5.446l-.046-.082a11.52 11.52 0 0 1 .186-11.209v-.007a11.518 11.518 0 0 1 9.617-5.764h.093a11.548 11.548 0 0 1 9.807 16.98l-.046.082a11.531 11.531 0 0 1-9.802 5.446z"
            transform="translate(-101.336 -86.433)"/>
      <path id="prefix__XMLID_2770_" fill="url(#prefix__radial-gradient-5)"
            d="M134.324 126.2a6.837 6.837 0 0 1-5.81-3.225l-.029-.05a6.827 6.827 0 0 1 .111-6.642 6.831 6.831 0 0 1 5.7-3.417h.057a6.844 6.844 0 0 1 5.806 10.063l-.029.05a6.835 6.835 0 0 1-5.806 3.221z"
            opacity="0.6" transform="translate(-109.571 -94.687)"/>
      <path id="prefix__XMLID_2771_" fill="#fff"
            d="M129.529 118.216a2.746 2.746 0 0 1-2.332-1.293l-.011-.018a2.741 2.741 0 0 1 .043-2.664 2.743 2.743 0 0 1 2.285-1.371h.021a2.747 2.747 0 0 1 2.332 4.035l-.011.018a2.732 2.732 0 0 1-2.327 1.293z"
            transform="translate(-109.046 -94.694)"/>
    </g>
  </g>
</svg>
