<svg xmlns="http://www.w3.org/2000/svg" width="24" height="24" viewBox="0 0 24 24">
    <g fill="none" fill-rule="evenodd">
        <g fill="#FFF" fill-rule="nonzero" stroke="#FFF" stroke-width=".5">
            <g>
                <g>
                    <g>
                        <path d="M9.84.013c-1.652 0-2.995 1.344-2.995 2.995s1.343 2.995 2.994 2.995c1.652 0 2.995-1.344 2.995-2.995S11.491.013 9.84.013zm0 5.134c-1.18 0-2.14-.96-2.14-2.139 0-1.179.96-2.139 2.14-2.139 1.178 0 2.138.96 2.138 2.139 0 1.179-.96 2.139-2.139 2.139zM3.911 3.436c-1.18 0-2.139.96-2.139 2.139 0 1.179.96 2.139 2.139 2.139 1.179 0 2.139-.96 2.139-2.14 0-1.178-.96-2.138-2.139-2.138zm0 3.422c-.708 0-1.283-.576-1.283-1.283 0-.708.575-1.284 1.283-1.284s1.283.576 1.283 1.284c0 .707-.575 1.283-1.283 1.283zM9.84 6.858c-3.067 0-5.562 2.495-5.562 5.562 0 .236.192.427.428.427s.428-.191.428-.427c0-2.595 2.11-4.706 4.705-4.706 2.596 0 4.706 2.11 4.706 4.706 0 .236.192.427.428.427s.428-.191.428-.427c0-3.067-2.495-5.562-5.562-5.562z" transform="translate(-1212 -145) translate(1196 136) translate(16 9) translate(4 5)"/>
                        <path d="M5.844 9.125c-.6-.363-1.29-.556-1.994-.556C1.727 8.57 0 10.297 0 12.42c0 .237.192.428.428.428s.428-.191.428-.427c0-1.652 1.343-2.995 2.994-2.995.549 0 1.084.149 1.55.431.2.123.464.058.588-.143.123-.202.058-.465-.144-.588z" transform="translate(-1212 -145) translate(1196 136) translate(16 9) translate(4 5)"/>
                    </g>
                </g>
            </g>
        </g>
    </g>
</svg>
