<svg xmlns="http://www.w3.org/2000/svg" width="69" height="69" viewBox="0 0 69 69">
    <g fill="none" fill-rule="evenodd">
        <g fill-rule="nonzero">
            <g>
                <g>
                    <g>
                        <g transform="translate(-213 -212) translate(160 120) translate(0 64) translate(53 24) translate(0 4)">
                            <circle cx="34.5" cy="34.5" r="34.5" fill="#0573D1"/>
                            <path fill="#48A4F2" fill-opacity=".517" d="M34.819 0c-.61 0-1.217.017-1.819.049 18.032.954 32.363 16.013 32.363 34.451S51.033 67.997 33 68.951c.602.032 1.209.049 1.819.049C53.697 69 69 53.554 69 34.5 69 15.446 53.697 0 34.819 0z"/>
                            <circle cx="34" cy="35" r="27" fill="#F4FBFF"/>
                            <path fill="#DAF1F4" d="M34.204 8c-.743 0-1.477.032-2.204.091C45.768 9.221 56.593 20.836 56.593 35S45.768 60.779 32 61.909c.727.06 1.461.091 2.204.091C49.003 62 61 49.912 61 35 61 20.09 49.003 8 34.204 8z"/>
                            <g fill="#2B4D66">
                                <path d="M22 3.588c-.569 0-1.03-.461-1.03-1.03V1.046c0-.569.461-1.03 1.03-1.03s1.03.461 1.03 1.03v1.512c0 .569-.461 1.03-1.03 1.03zM35.692 9.306c-.264 0-.528-.1-.729-.302-.402-.402-.402-1.054 0-1.457l1.07-1.069c.402-.402 1.054-.402 1.456 0 .403.403.403 1.055 0 1.457l-1.069 1.07c-.201.2-.465.3-.728.3zM42.842 23.03H41.33c-.57 0-1.03-.46-1.03-1.03 0-.569.461-1.03 1.03-1.03h1.512c.57 0 1.03.461 1.03 1.03 0 .57-.461 1.03-1.03 1.03zM36.681 37.791c-.263 0-.527-.1-.728-.302l-1.07-1.069c-.402-.402-.402-1.054 0-1.457.403-.402 1.055-.402 1.458 0l1.069 1.07c.402.402.402 1.054 0 1.456-.201.201-.465.302-.729.302zM21.888 43.872c-.57 0-1.03-.46-1.03-1.03V41.33c0-.569.46-1.03 1.03-1.03.569 0 1.03.461 1.03 1.03v1.512c0 .57-.461 1.03-1.03 1.03zM7.127 37.712c-.264 0-.527-.101-.728-.302-.403-.403-.403-1.055 0-1.457l1.069-1.07c.402-.401 1.054-.402 1.457 0 .402.403.402 1.055 0 1.458l-1.07 1.069c-.2.201-.464.302-.728.302zM2.558 22.918H1.046c-.57 0-1.03-.461-1.03-1.03s.46-1.03 1.03-1.03h1.512c.569 0 1.03.461 1.03 1.03s-.461 1.03-1.03 1.03zM8.276 9.227c-.264 0-.528-.101-.729-.302l-1.069-1.07c-.402-.402-.402-1.054 0-1.456.402-.402 1.054-.403 1.457 0l1.069 1.069c.402.402.402 1.054 0 1.457-.201.2-.465.302-.728.302z" transform="translate(12 13)"/>
                            </g>
                            <path fill="#2B4D66" d="M34.952 36h-8.904C25.47 36 25 35.516 25 34.919c0-.598.47-1.082 1.048-1.082h7.855V20.081c0-.597.47-1.081 1.049-1.081S36 19.484 36 20.081V34.92c0 .597-.47 1.081-1.048 1.081z"/>
                            <path fill="#DA4A54" d="M44.938 41c-.163 0-.328-.034-.484-.107l-10.878-5.075c-.521-.243-.726-.823-.458-1.296.267-.472.907-.658 1.427-.415l10.88 5.075c.52.243.725.823.457 1.296-.188.331-.559.522-.944.522z"/>
                            <circle cx="34" cy="35" r="3" fill="#365E7D"/>
                        </g>
                    </g>
                </g>
            </g>
        </g>
    </g>
</svg>
