<svg xmlns="http://www.w3.org/2000/svg" width="18" height="18" viewBox="0 0 18 18">
    <g fill="none" fill-rule="evenodd">
        <g fill="#BFBFBF" fill-rule="nonzero" stroke="#BFBFBF" stroke-width=".5">
            <g>
                <g>
                    <g>
                        <path d="M14.75 10.039c-.22 0-.398.179-.398.4v3.551c0 .663-.535 1.2-1.194 1.2H1.99c-.66 0-1.193-.537-1.194-1.2V3.567c0-.662.535-1.2 1.194-1.2h3.534c.22 0 .398-.18.398-.4 0-.22-.178-.4-.398-.4H1.99c-1.099.001-1.989.896-1.99 2V13.99c.001 1.104.891 1.998 1.99 2h11.168c1.098-.002 1.989-.896 1.99-2v-3.552c0-.221-.178-.4-.398-.4z" transform="translate(-1124 -1014) translate(128 112) translate(997 899) translate(0 4)"/>
                        <path d="M14.99.538c-.7-.703-1.833-.703-2.533 0l-7.1 7.136c-.05.049-.084.11-.103.176l-.933 3.388c-.039.139 0 .288.102.39.101.102.25.14.387.102l3.371-.938c.067-.019.127-.054.176-.103l7.1-7.136c.699-.704.699-1.843 0-2.546l-.467-.47zM6.224 7.934l5.811-5.84 1.874 1.883-5.811 5.84-1.874-1.883zm-.375.755l1.498 1.505-2.072.577.574-2.082zm9.045-5.702l-.422.424-1.874-1.883.422-.425c.389-.39 1.019-.39 1.407 0l.467.47c.388.39.388 1.023 0 1.414h0z" transform="translate(-1124 -1014) translate(128 112) translate(997 899) translate(0 4)"/>
                    </g>
                </g>
            </g>
        </g>
    </g>
</svg>
