<svg xmlns="http://www.w3.org/2000/svg" width="16" height="17" viewBox="0 0 16 17">
    <g fill="none" fill-rule="evenodd">
        <g fill="#FFF" fill-rule="nonzero">
            <g>
                <g>
                    <g>
                        <g>
                            <g>
                                <g>
                                    <path d="M9.714 4.381H6.476c-.105 0-.19-.085-.19-.19V.951C6.286.426 5.859 0 5.333 0s-.952.426-.952.952V4.19c0 .106-.085.191-.19.191H.951c-.526 0-.952.426-.952.952s.426.953.952.953H4.19c.106 0 .191.085.191.19v3.238c0 .526.426.953.952.953s.953-.427.953-.953V6.476c0-.105.085-.19.19-.19h3.238c.526 0 .953-.427.953-.953s-.427-.952-.953-.952z" transform="translate(-282 -657) translate(128 112) translate(114 101) translate(24 17.927) translate(0 413.402) translate(16 12.919) translate(2.667 2.667)"/>
                                </g>
                            </g>
                        </g>
                    </g>
                </g>
            </g>
        </g>
    </g>
</svg>
