<svg xmlns="http://www.w3.org/2000/svg" width="32" height="32" viewBox="0 0 32 32">
    <g fill="none" fill-rule="evenodd">
        <g>
            <g>
                <g>
                    <g transform="translate(-218 -1811) translate(194 1579) translate(0 75) translate(24 157)">
                        <rect width="32" height="32" fill="#0573D1" rx="8"/>
                        <g fill="#FFF" fill-rule="nonzero">
                            <path d="M7 0C4.794 0 3 1.697 3 3.783v7.434C3 13.303 4.794 15 7 15s4-1.685 4-3.757v-7.46C11 1.697 9.206 0 7 0zm2.333 11.243c0 1.202-1.047 2.18-2.333 2.18-1.286 0-2.333-.989-2.333-2.206V3.783c0-1.217 1.046-2.207 2.333-2.207 1.287 0 2.333.99 2.333 2.207v7.46zM6 17H8V21H6z" transform="translate(9 5)"/>
                            <path d="M9.174 20H4.826C4.37 20 4 20.448 4 21s.37 1 .826 1h4.348c.456 0 .826-.448.826-1s-.37-1-.826-1zM13.183 10c-.451 0-.817.345-.817.772v.617c0 2.794-2.407 5.068-5.366 5.068-2.959 0-5.366-2.274-5.366-5.068v-.617c0-.427-.366-.772-.817-.772-.451 0-.817.345-.817.772v.617C0 15.034 3.14 18 7 18s7-2.966 7-6.61v-.618c0-.426-.366-.772-.817-.772z" transform="translate(9 5)"/>
                        </g>
                    </g>
                </g>
            </g>
        </g>
    </g>
</svg>
