<svg xmlns="http://www.w3.org/2000/svg" width="34" height="16" viewBox="0 0 34 16">
    <g fill="none" fill-rule="evenodd">
        <g>
            <g>
                <g>
                    <g transform="translate(-928 -417) translate(400 292) translate(482 104) translate(46 21)">
                        <rect width="34" height="3" fill="#FFF" rx="1"/>
                        <g fill="#48A4F2" transform="translate(10 8)">
                            <rect width="1" height="6" y="1" rx=".5"/>
                            <rect width="1" height="6" x="12" rx=".5"/>
                            <rect width="1" height="6" x="6" rx=".5"/>
                            <rect width="1" height="5" x="2" y="2" rx=".5"/>
                            <rect width="1" height="5" x="14" y="2" rx=".5"/>
                            <rect width="1" height="6" x="8" y="1" rx=".5"/>
                            <rect width="1" height="5" x="4" y="2" rx=".5"/>
                            <rect width="1" height="5" x="16" y="2" rx=".5"/>
                            <rect width="1" height="6" x="10" y="1" rx=".5"/>
                        </g>
                        <g fill="#48A4F2" fill-rule="nonzero">
                            <g>
                                <path d="M3 0c-.945 0-1.714.694-1.714 1.548v3.04c0 .854.769 1.548 1.714 1.548S4.714 5.447 4.714 4.6V1.548C4.714.694 3.945 0 3 0zm1 4.6c0 .491-.449.891-1 .891-.551 0-1-.404-1-.902V1.548c0-.498.449-.903 1-.903.551 0 1 .405 1 .903v3.051zM2.571 6.955H3.571V8.591H2.571z" transform="translate(2 7)"/>
                                <path d="M3.932 8.182H2.068c-.195 0-.354.183-.354.409 0 .226.159.409.354.409h1.864c.195 0 .354-.183.354-.41 0-.225-.159-.408-.354-.408zM5.65 4.09c-.194 0-.35.142-.35.317v.252c0 1.143-1.032 2.073-2.3 2.073-1.268 0-2.3-.93-2.3-2.073v-.252c0-.175-.156-.316-.35-.316-.193 0-.35.141-.35.316v.252C0 6.15 1.346 7.364 3 7.364S6 6.15 6 4.659v-.252c0-.175-.157-.316-.35-.316z" transform="translate(2 7)"/>
                            </g>
                        </g>
                    </g>
                </g>
            </g>
        </g>
    </g>
</svg>
