<svg xmlns="http://www.w3.org/2000/svg" xmlns:xlink="http://www.w3.org/1999/xlink" width="162" height="162" viewBox="0 0 162 162">
    <defs>
        <circle id="wc3m0h3dea" cx="81" cy="81" r="81"/>
    </defs>
    <g fill="none" fill-rule="evenodd">
        <g>
            <g>
                <g>
                    <g transform="translate(-976 -587) translate(231 555) translate(674) translate(71 32)">
                        <mask id="ir64c0nm8b" fill="#fff">
                            <use xlink:href="#wc3m0h3dea"/>
                        </mask>
                        <use fill="#D8D8D8" xlink:href="#wc3m0h3dea"/>
                        <g mask="url(#ir64c0nm8b)">
                            <g fill-rule="nonzero">
                                <path fill="#2196F3" d="M91 0C40.82 0 0 40.82 0 91s40.82 91 91 91 91-40.82 91-91S141.18 0 91 0z" transform="translate(-10 -10)"/>
                                <g>
                                    <path fill="#76FFD9" d="M92 49.56c0 1.9-1.592 3.44-3.556 3.44h-8.888C77.592 53 76 51.46 76 49.56v-9.12c0-1.9 1.592-3.44 3.556-3.44h8.888C90.408 37 92 38.54 92 40.44v9.12z" transform="translate(-10 -10) translate(45 41)"/>
                                    <path fill="#FFF" d="M87.55 37H84c1.906 0 3.45 1.54 3.45 3.44v9.12c0 1.9-1.544 3.44-3.45 3.44h3.55c1.905 0 3.45-1.54 3.45-3.44v-9.12c0-1.9-1.545-3.44-3.45-3.44z" transform="translate(-10 -10) translate(45 41)"/>
                                    <path fill="#FFC843" d="M92 36.56c0 1.9-1.592 3.44-3.556 3.44h-8.888C77.592 40 76 38.46 76 36.56V27.44c0-1.9 1.592-3.441 3.556-3.441h8.888C90.408 24 92 25.54 92 27.441v9.118z" transform="translate(-10 -10) translate(45 41)"/>
                                    <path fill="#FFF" d="M88.351 24H85c2.015 0 3.649 1.54 3.649 3.44v9.12c0 1.9-1.634 3.44-3.649 3.44h3.351C90.366 40 92 38.46 92 36.56v-9.12c0-1.9-1.634-3.44-3.649-3.44z" transform="translate(-10 -10) translate(45 41)"/>
                                    <path fill="#FF8025" d="M92 23.56c0 1.9-1.592 3.44-3.556 3.44h-8.888C77.592 27 76 25.46 76 23.56v-9.12c0-1.9 1.592-3.44 3.556-3.44h8.888C90.408 11 92 12.54 92 14.44v9.12z" transform="translate(-10 -10) translate(45 41)"/>
                                    <path fill="#FFF" d="M88.233 11H85c2.08 0 3.767 1.54 3.767 3.44v9.12c0 1.9-1.687 3.44-3.767 3.44h3.233C90.313 27 92 25.46 92 23.56v-9.12c0-1.9-1.687-3.44-3.767-3.44z" transform="translate(-10 -10) translate(45 41)"/>
                                    <path fill="#FFC843" d="M85 89.755C85 94.86 80.846 99 75.723 99H17.277C12.154 99 8 94.86 8 89.755v-79.51C8 5.14 12.154 1 17.277 1h58.446C80.846 1 85 5.14 85 10.245v79.51z" transform="translate(-10 -10) translate(45 41)"/>
                                    <path fill="#FFF" d="M75.664 1H67c5.156 0 9.335 4.14 9.335 9.245v79.51C76.335 94.86 72.155 99 67 99h8.664C80.82 99 85 94.86 85 89.755v-79.51C85 5.14 80.82 1 75.664 1z" transform="translate(-10 -10) translate(45 41)"/>
                                    <path fill="#F9F9F9" d="M70 77.429C70 79.954 67.954 82 65.429 82H26.57C24.046 82 22 79.954 22 77.429V62.57C22 60.046 24.046 58 26.571 58H65.43C67.954 58 70 60.046 70 62.571V77.43zM69 47c0 1.657-1.458 3-3.258 3H25.258C23.459 50 22 48.657 22 47s1.46-3 3.258-3h40.484c1.8 0 3.258 1.343 3.258 3z" transform="translate(-10 -10) translate(45 41)"/>
                                    <path fill="#E1EAF8" d="M27.406 77.429V62.57C27.406 60.046 29.463 58 32 58h-6.407C23.056 58 21 60.046 21 62.571V77.43C21 79.954 23.056 82 25.593 82H32c-2.537 0-4.594-2.046-4.594-4.571zM27.993 47c0-1.657 1.346-3 3.007-3h-5.993C23.347 44 22 45.343 22 47s1.347 3 3.007 3H31c-1.661 0-3.007-1.343-3.007-3z" transform="translate(-10 -10) translate(45 41)"/>
                                    <g fill="#76FFD9">
                                        <path d="M11.67 2.924c0 1.518-1.212 2.75-2.707 2.75H2.869C1.373 5.673.16 4.441.16 2.923.16 1.404 1.373.173 2.869.173h6.094c1.495 0 2.708 1.231 2.708 2.75zM11.67 13.697c0 1.519-1.212 2.75-2.707 2.75H2.869c-1.496 0-2.708-1.231-2.708-2.75 0-1.52 1.212-2.75 2.708-2.75h6.094c1.495 0 2.708 1.23 2.708 2.75zM11.67 24.47c0 1.52-1.212 2.75-2.707 2.75H2.869C1.373 27.22.16 25.99.16 24.47s1.212-2.75 2.708-2.75h6.094c1.495 0 2.708 1.23 2.708 2.75zM11.67 35.244c0 1.52-1.212 2.75-2.707 2.75H2.869c-1.496 0-2.708-1.23-2.708-2.75s1.212-2.75 2.708-2.75h6.094c1.495 0 2.708 1.23 2.708 2.75zM11.67 46.017c0 1.52-1.212 2.75-2.707 2.75H2.869c-1.496 0-2.708-1.23-2.708-2.75 0-1.519 1.212-2.75 2.708-2.75h6.094c1.495 0 2.708 1.231 2.708 2.75zM11.67 56.791c0 1.518-1.212 2.75-2.707 2.75H2.869c-1.496 0-2.708-1.232-2.708-2.75 0-1.519 1.212-2.75 2.708-2.75h6.094c1.495 0 2.708 1.231 2.708 2.75zM11.67 67.564c0 1.52-1.212 2.751-2.707 2.751H2.869c-1.496 0-2.708-1.232-2.708-2.75 0-1.52 1.212-2.751 2.708-2.751h6.094c1.495 0 2.708 1.231 2.708 2.75zM11.67 78.338c0 1.519-1.212 2.751-2.707 2.751H2.869c-1.496 0-2.708-1.232-2.708-2.75 0-1.52 1.212-2.751 2.708-2.751h6.094c1.495-.001 2.708 1.231 2.708 2.75z" transform="translate(-10 -10) translate(45 41) translate(2 10)"/>
                                    </g>
                                    <path fill="#434C54" d="M93 14.426c0-2.73-2.226-4.951-4.963-4.951h-2.535C84.852 4.145 80.289 0 74.77 0H16.376c-4.817 0-8.905 3.157-10.3 7.505h-1.75C1.94 7.505 0 9.442 0 11.82c0 2.38 1.94 4.317 4.326 4.317h1.236v2.22H4.326C1.94 18.358 0 20.294 0 22.675c0 2.38 1.94 4.316 4.326 4.316h1.236v2.22H4.326C1.94 29.21 0 31.147 0 33.527s1.94 4.317 4.326 4.317h1.236v2.22H4.326C1.94 40.063 0 42 0 44.38c0 2.38 1.94 4.317 4.326 4.317h1.236v2.22H4.326C1.94 50.917 0 52.853 0 55.234c0 2.38 1.94 4.316 4.326 4.316h1.236v2.22H4.326C1.94 61.77 0 63.706 0 66.086s1.94 4.317 4.326 4.317h1.236v2.22H4.326C1.94 72.622 0 74.558 0 76.938s1.94 4.317 4.326 4.317h1.236v2.22H4.326C1.94 83.476 0 85.412 0 87.792s1.94 4.317 4.326 4.317h1.406c.9 5.047 5.329 8.891 10.644 8.891H74.77c5.963 0 10.814-4.837 10.814-10.783V54.124h2.453c2.737 0 4.963-2.22 4.963-4.95v-9.026c0-.667-.135-1.304-.377-1.885.242-.582.377-1.22.377-1.888V27.35c0-.692-.144-1.351-.403-1.95.259-.599.403-1.258.403-1.95v-9.025zm-3.09 21.949c0 1.025-.84 1.86-1.873 1.86h-2.453v-9.833h2.453c.663 0 1.294-.131 1.873-.367v8.34zm0-21.95v9.025c0 1.026-.84 1.86-1.873 1.86h-2.453V12.565h2.453c1.033 0 1.873.835 1.873 1.86zM3.09 11.823c0-.676.554-1.225 1.236-1.225h6.256c.682 0 1.236.55 1.236 1.225s-.554 1.225-1.236 1.225H4.326c-.682 0-1.236-.55-1.236-1.225zm0 10.853c0-.676.554-1.225 1.236-1.225h6.256c.682 0 1.236.549 1.236 1.225s-.554 1.225-1.236 1.225H4.326c-.682 0-1.236-.55-1.236-1.225zm0 10.852c0-.675.554-1.224 1.236-1.224h6.256c.682 0 1.236.55 1.236 1.224 0 .676-.554 1.226-1.236 1.226H4.326c-.682 0-1.236-.55-1.236-1.226zm0 10.854c0-.676.554-1.225 1.236-1.225h6.256c.682 0 1.236.55 1.236 1.225s-.554 1.225-1.236 1.225H4.326c-.682 0-1.236-.55-1.236-1.225zm0 10.853c0-.675.554-1.225 1.236-1.225h6.256c.682 0 1.236.55 1.236 1.225s-.554 1.225-1.236 1.225H4.326c-.682 0-1.236-.55-1.236-1.225zm0 10.853c0-.676.554-1.225 1.236-1.225h6.256c.682 0 1.236.55 1.236 1.225s-.554 1.225-1.236 1.225H4.326c-.682 0-1.236-.55-1.236-1.225zm0 10.853c0-.676.554-1.225 1.236-1.225h6.256c.682 0 1.236.549 1.236 1.225s-.554 1.225-1.236 1.225H4.326c-.682 0-1.236-.55-1.236-1.225zm0 10.853c0-.676.554-1.225 1.236-1.225h6.256c.682 0 1.236.55 1.236 1.225s-.554 1.225-1.236 1.225H4.326c-.682 0-1.236-.55-1.236-1.225zm79.405 2.424c0 4.24-3.466 7.691-7.725 7.691H16.376c-3.604 0-6.637-2.47-7.485-5.798h1.691c2.385 0 4.326-1.937 4.326-4.317s-1.94-4.317-4.326-4.317h-1.93v-2.22h1.93c2.385 0 4.326-1.936 4.326-4.316s-1.94-4.317-4.326-4.317h-1.93v-2.22h1.93c2.385 0 4.326-1.936 4.326-4.316s-1.94-4.317-4.326-4.317h-1.93v-2.219h1.93c2.385 0 4.326-1.937 4.326-4.317s-1.94-4.317-4.326-4.317h-1.93v-2.22h1.93c2.385 0 4.326-1.936 4.326-4.316s-1.94-4.317-4.326-4.317h-1.93v-2.22h1.93c2.385 0 4.326-1.935 4.326-4.316 0-2.38-1.94-4.317-4.326-4.317h-1.93v-2.219h1.93c2.385 0 4.326-1.937 4.326-4.317s-1.94-4.317-4.326-4.317h-1.93v-2.22h1.93c2.385 0 4.326-1.936 4.326-4.316s-1.94-4.317-4.326-4.317h-1.19c1.237-2.606 3.901-4.413 6.984-4.413H74.77c4.26 0 7.725 3.45 7.725 7.69v79.435zm5.543-39.185h-2.453v-9.706h2.453c.662 0 1.293-.131 1.872-.367v8.214c0 1.025-.84 1.86-1.872 1.86z" transform="translate(-10 -10) translate(45 41)"/>
                                </g>
                            </g>
                        </g>
                    </g>
                </g>
            </g>
        </g>
    </g>
</svg>
