<svg xmlns="http://www.w3.org/2000/svg" xmlns:xlink="http://www.w3.org/1999/xlink" width="162" height="162" viewBox="0 0 162 162">
    <defs>
        <circle id="2y9gpe1pfa" cx="81" cy="81" r="81"/>
    </defs>
    <g fill="none" fill-rule="evenodd">
        <g>
            <g>
                <g transform="translate(-302 -1924) translate(231 1892) translate(71 32)">
                    <mask id="v3egi8ib5b" fill="#fff">
                        <use xlink:href="#2y9gpe1pfa"/>
                    </mask>
                    <use fill="#D8D8D8" xlink:href="#2y9gpe1pfa"/>
                    <g mask="url(#v3egi8ib5b)">
                        <g fill-rule="nonzero">
                            <path fill="#2196F3" d="M91 0C40.82 0 0 40.82 0 91s40.82 91 91 91 91-40.82 91-91S141.18 0 91 0z" transform="translate(-10 -10)"/>
                            <g>
                                <path fill="#FFF" d="M50.49 43C63.07 37.141 72 22.338 72 5H5c0 17.338 9.027 32.141 21.606 38C14.027 48.858 5 63.661 5 81h67c0-17.339-8.93-32.142-21.51-38z" transform="translate(-10 -10) translate(52 48)"/>
                                <path fill="#FFF" d="M66.628 77c-.682 0-1.273-.493-1.358-1.165-.679-5.395-2.39-10.389-5.082-14.841-.382-.631-.163-1.443.49-1.813.654-.369 1.492-.156 1.874.475 2.884 4.766 4.713 10.102 5.438 15.858.091.727-.443 1.388-1.194 1.476-.056.006-.112.01-.168.01z" transform="translate(-10 -10) translate(52 48)"/>
                                <path fill="#E1EAF8" d="M36 43C23.177 37.142 13.974 22.34 13.974 5H5c0 17.339 9.203 32.142 22.026 38C14.203 48.858 5 63.66 5 81h8.974c0-17.339 9.203-32.142 22.026-38z" transform="translate(-10 -10) translate(52 48)"/>
                                <path fill="#76FFD9" d="M22 79c.756-4.373 2.424-8.362 4.876-11.564C30.056 63.286 34.184 61 38.5 61c4.317 0 8.445 2.286 11.624 6.436C52.576 70.638 54.244 74.627 55 79H22z" transform="translate(-10 -10) translate(52 48)"/>
                                <path fill="#FFC843" d="M76 81.441C76 83.407 74.321 85 72.25 85H4.75C2.68 85 1 83.407 1 81.441v-3.882C1 75.593 2.68 74 4.75 74h67.5c2.071 0 3.75 1.593 3.75 3.559v3.882z" transform="translate(-10 -10) translate(52 48)"/>
                                <path fill="#FFB400" d="M10.213 81.441v-3.882C10.213 75.593 11.91 74 14 74H4.787C2.696 74 1 75.593 1 77.559v3.882C1 83.407 2.696 85 4.787 85H14c-2.091 0-3.787-1.593-3.787-3.559z" transform="translate(-10 -10) translate(52 48)"/>
                                <g fill="#76FFD9">
                                    <path d="M.119.113c.914 1.495 1.93 2.915 3.052 4.24 4.553 5.382 10.307 8.626 16.413 9.308.135 1.206 1.17 2.145 2.428 2.145 1.257 0 2.292-.939 2.428-2.145 6.104-.682 11.86-3.926 16.412-9.308 1.122-1.325 2.138-2.745 3.052-4.24H.12zM24.456 21.04c0 1.334-1.095 2.414-2.444 2.414-1.35 0-2.444-1.08-2.444-2.413 0-1.333 1.094-2.414 2.444-2.414 1.35 0 2.444 1.08 2.444 2.414zM24.456 30.447c0 1.333-1.095 2.413-2.444 2.413-1.35 0-2.444-1.08-2.444-2.413 0-1.333 1.094-2.413 2.444-2.413 1.35 0 2.444 1.08 2.444 2.413z" transform="translate(-10 -10) translate(52 48) translate(17 25)"/>
                                </g>
                                <path fill="#FFC843" d="M76 8.441C76 10.407 74.321 12 72.25 12H4.75C2.68 12 1 10.407 1 8.441V4.559C1 2.593 2.68 1 4.75 1h67.5C74.322 1 76 2.593 76 4.559v3.882z" transform="translate(-10 -10) translate(52 48)"/>
                                <path fill="#FFB400" d="M10.213 8.441V4.559C10.213 2.593 11.91 1 14 1H4.787C2.696 1 1 2.593 1 4.559v3.882C1 10.407 2.696 12 4.787 12H14c-2.091 0-3.787-1.593-3.787-3.559z" transform="translate(-10 -10) translate(52 48)"/>
                                <path fill="#434C54" d="M67.74 29.347c2.73-4.688 4.6-9.926 5.54-15.445C75.915 13.72 78 11.569 78 8.949V4.967C78 2.228 75.72 0 72.92 0H5.08C2.28 0 0 2.228 0 4.967v3.982c0 2.622 2.09 4.775 4.726 4.953.949 5.515 2.832 10.754 5.585 15.448 3.55 6.052 8.3 10.829 13.843 13.946-5.542 3.117-10.294 7.893-13.843 13.946-2.653 4.523-4.498 9.552-5.477 14.848C2.147 72.216 0 74.393 0 77.051v3.982C0 83.772 2.279 86 5.08 86h67.84c2.8 0 5.08-2.228 5.08-4.967v-3.982c0-2.656-2.143-4.831-4.826-4.96-.972-5.3-2.802-10.328-5.435-14.846-3.53-6.057-8.265-10.835-13.797-13.95 5.532-3.114 10.268-7.892 13.797-13.948zM2.621 8.949V4.967c0-1.287 1.103-2.335 2.458-2.335h67.84c1.355 0 2.457 1.048 2.457 2.335v3.982c0 1.287-1.102 2.334-2.457 2.334H5.08c-1.355 0-2.458-1.047-2.458-2.334zM75.377 77.05v3.982c0 1.287-1.102 2.335-2.457 2.335H5.08c-1.355 0-2.458-1.048-2.458-2.335v-3.982c0-1.287 1.103-2.334 2.458-2.334h67.84c1.355 0 2.457 1.047 2.457 2.334zM50.507 42.1c-.466.215-.764.683-.764 1.196 0 .515.298.982.764 1.197 6.048 2.786 11.223 7.656 14.969 14.082 2.398 4.116 4.09 8.688 5.029 13.51H67.83c-.9-4.363-2.444-8.449-4.62-12.18-.365-.628-1.168-.84-1.793-.473-.626.368-.836 1.174-.47 1.801 1.941 3.332 3.345 6.97 4.2 10.852H7.504c.946-4.816 2.65-9.386 5.067-13.507 3.767-6.423 8.96-11.294 15.02-14.085.465-.215.763-.682.763-1.196 0-.514-.298-.982-.764-1.197-6.058-2.791-11.252-7.661-15.019-14.084-2.515-4.29-4.26-9.065-5.178-14.1h63.222c-.912 5.04-2.643 9.818-5.14 14.102-3.745 6.426-8.92 11.296-14.968 14.082z" transform="translate(-10 -10) translate(52 48)"/>
                            </g>
                        </g>
                    </g>
                </g>
            </g>
        </g>
    </g>
</svg>
