<svg xmlns="http://www.w3.org/2000/svg" xmlns:xlink="http://www.w3.org/1999/xlink" width="162" height="162" viewBox="0 0 162 162">
    <defs>
        <circle id="32ysmfbz5a" cx="81" cy="81" r="81"/>
    </defs>
    <g fill="none" fill-rule="evenodd">
        <g>
            <g>
                <g transform="translate(-302 -1495) translate(231 1463) translate(71 32)">
                    <mask id="xt0l8mlezb" fill="#fff">
                        <use xlink:href="#32ysmfbz5a"/>
                    </mask>
                    <use fill="#D8D8D8" xlink:href="#32ysmfbz5a"/>
                    <g mask="url(#xt0l8mlezb)">
                        <g fill-rule="nonzero">
                            <path fill="#2196F3" d="M91 0C40.82 0 0 40.82 0 91s40.82 91 91 91 91-40.82 91-91S141.18 0 91 0z" transform="translate(-10 -10)"/>
                            <g>
                                <path fill="#EEEFEE" stroke="#434C54" d="M79 62L85 62 85 77 79 77z" transform="translate(-10 -10) translate(47 46)"/>
                                <path fill="#5DE0BF" stroke="#434C54" d="M70 57h3.846C77.245 57 80 59.642 80 62.902v15.196C80 81.358 77.245 84 73.846 84H70V57z" transform="translate(-10 -10) translate(47 46)"/>
                                <path fill="#575B6D" d="M83.017 56.87L82.983 57.13 82.983 56.87z" transform="translate(-10 -10) translate(47 46)"/>
                                <path fill="#EEEFEE" d="M3 62L9 62 9 77 3 77z" transform="translate(-10 -10) translate(47 46)"/>
                                <path fill="#5DE0BF" stroke="#434C54" d="M18 84h-3.846C10.755 84 8 81.358 8 78.098V62.902C8 59.642 10.755 57 14.154 57H18v27z" transform="translate(-10 -10) translate(47 46)"/>
                                <path fill="#FFB400" stroke="#434C54" d="M16.391 88.124l5.341 1.657c2.548.79 5.257-.626 6.05-3.161.144-.461.217-.94.218-1.423V53.802c-.003-2.656-2.17-4.806-4.838-4.802-.485 0-.967.074-1.43.217l-5.34 1.657c-2.016.627-3.39 2.484-3.392 4.585v28.076c0 2.103 1.374 3.962 3.391 4.59h0zM71.608 88.126l-5.34 1.655c-2.548.79-5.257-.626-6.05-3.162-.144-.46-.217-.94-.218-1.422V53.802c.003-2.656 2.17-4.806 4.838-4.802.485 0 .967.074 1.43.217l5.34 1.658c2.016.626 3.39 2.483 3.392 4.584v28.078c0 2.104-1.375 3.963-3.392 4.59z" transform="translate(-10 -10) translate(47 46)"/>
                                <path fill="#575B6D" d="M4.983 56.87L5.017 57.13 5.017 56.87z" transform="translate(-10 -10) translate(47 46)"/>
                                <path fill="#EEEFEE" stroke="#434C54" d="M44 7.563c-13.429.103-25.931 6.915-33.368 18.182-4.64 6.546-7.111 14.4-7.06 22.445.004 2.527.213 5.049.624 7.542.165 1.16.248 2.33.248 3.503V78H2.133c-.65-.002-1.177-.533-1.18-1.188v-17.1C.957 58.564.87 57.42.696 56.29c-2.049-11.359.475-23.072 7.013-32.552C15.802 11.494 29.4 4.098 44 4c14.6.098 28.199 7.494 36.292 19.738 6.538 9.48 9.062 21.193 7.013 32.552-.175 1.131-.262 2.275-.259 3.42v17.102c-.002.655-.528 1.186-1.179 1.188h-2.31V59.235c0-1.172.083-2.343.248-3.504.41-2.492.62-5.015.624-7.541.051-8.044-2.42-15.9-7.06-22.446C69.932 14.478 57.43 7.666 44 7.564z" transform="translate(-10 -10) translate(47 46)"/>
                                <path fill="#5DE0BF" stroke="#434C54" d="M16.929 20c-3.272.002-5.926-2.525-5.929-5.645-.001-1.742.84-3.388 2.28-4.46C21.779 3.489 32.295.003 43.13 0c10.775-.013 21.23 3.49 29.63 9.926 2.563 1.941 2.99 5.495.954 7.938-2.035 2.444-5.762 2.85-8.323.91-6.309-4.841-14.164-7.479-22.26-7.475-8.193.01-16.141 2.654-22.562 7.505-1.04.775-2.321 1.197-3.64 1.195z" transform="translate(-10 -10) translate(47 46)"/>
                            </g>
                        </g>
                    </g>
                </g>
            </g>
        </g>
    </g>
</svg>
