<svg xmlns="http://www.w3.org/2000/svg" xmlns:xlink="http://www.w3.org/1999/xlink" width="162" height="162" viewBox="0 0 162 162">
    <defs>
        <circle id="s8rphhe6ha" cx="81" cy="81" r="81"/>
    </defs>
    <g fill="none" fill-rule="evenodd">
        <g>
            <g>
                <g>
                    <g transform="translate(-976 -1041) translate(231 1009) translate(674) translate(71 32)">
                        <mask id="ktrbcqj5yb" fill="#fff">
                            <use xlink:href="#s8rphhe6ha"/>
                        </mask>
                        <use fill="#D8D8D8" xlink:href="#s8rphhe6ha"/>
                        <g mask="url(#ktrbcqj5yb)">
                            <g fill-rule="nonzero">
                                <path fill="#2196F3" d="M91 0C40.82 0 0 40.82 0 91s40.82 91 91 91 91-40.82 91-91S141.18 0 91 0z" transform="translate(-10 -10)"/>
                                <g>
                                    <path fill="#76FFD9" d="M7.523 82.88c-1.492 1.493-3.912 1.493-5.404 0-1.492-1.491-1.492-3.91 0-5.403l6.358-6.358c1.493-1.492 3.911-1.492 5.404 0 1.492 1.493 1.492 3.912 0 5.404l-6.358 6.358z" transform="translate(-10 -10) translate(48 49)"/>
                                    <path fill="#FFC843" d="M59.97 62.003c-.405-.415-.71-.943-.864-1.553-.458-1.816.61-3.667 2.387-4.135 3.526-.93 7.464-3.421 10.802-6.835 6.996-7.156 8.247-14.665 6.063-16.899l-8.59-8.784c-1.296-1.326-1.296-3.476 0-4.802 1.297-1.327 3.4-1.327 4.697 0l8.588 8.784c2.916 2.98 3.7 7.563 2.21 12.9-1.299 4.645-4.236 9.476-8.273 13.604-4.214 4.31-9.13 7.367-13.84 8.609-1.18.31-2.375-.068-3.18-.89z" transform="translate(-10 -10) translate(48 49)"/>
                                    <path fill="#FFF" d="M83.66 29c.3 1.045.454 2.172.462 3.365.316 2.084.123 4.43-.598 6.946-1.312 4.576-4.282 9.336-8.363 13.403-4.261 4.247-9.231 7.26-13.995 8.483-.75.193-1.506.116-2.166-.168.168.375.4.708.682.989.812.809 2.02 1.182 3.215.875 4.763-1.223 9.733-4.236 13.994-8.482 4.08-4.068 7.051-8.828 8.363-13.404 1.392-4.856.822-9.076-1.595-12.007zM61.985 5c-8.01 3.984-17.375 10.936-26.312 19.997C17.33 43.594 2.01 69.84 8.529 76.45c6.518 6.61 32.405-8.924 50.748-27.522C68.213 39.868 75.069 30.372 79 22.251L61.985 5z" transform="translate(-10 -10) translate(48 49)"/>
                                    <path fill="#5DE0BF" d="M61 4.777L78.223 22c4.187-8.534 5.092-15.548 1.708-18.932C76.548-.315 69.534.59 61 4.777z" transform="translate(-10 -10) translate(48 49)"/>
                                    <path fill="#76FFD9" d="M79.978 3.067C78.611 1.667 76.635 1.004 74.2 1c.1.09.2.183.295.28 2.96 3.03 2.56 8.973-.494 16.31L78.309 22c4.092-8.535 4.976-15.55 1.67-18.933zM13.716 53C7.751 63.667 5.09 72.856 8.514 76.423c3.424 3.567 12.246.794 22.486-5.42L13.716 53z" transform="translate(-10 -10) translate(48 49)"/>
                                    <path fill="#FFC843" d="M39.75 51.451c-2.001 2.065-5.247 2.065-7.249 0-2.001-2.064-2.001-5.41 0-7.475L54.25 21.548c2.002-2.064 5.248-2.064 7.25 0 2.001 2.065 2.001 5.412 0 7.476L39.751 51.451z" transform="translate(-10 -10) translate(48 49)"/>
                                    <path fill="#FFB400" d="M35.209 47.017L57.268 24.29c1.55-1.597 3.834-1.974 5.732-1.132-.252-.577-.605-1.117-1.064-1.59-2.031-2.092-5.323-2.092-7.354 0L32.523 44.295c-2.03 2.092-2.03 5.483 0 7.575.48.495 1.031.869 1.62 1.13-.86-1.97-.505-4.366 1.066-5.983z" transform="translate(-10 -10) translate(48 49)"/>
                                    <path fill="#5DE0BF" d="M7.938 65.183l.124-.366c-.042.122-.085.245-.124.366zM6.992 71.147c.004-.098.009-.195.016-.294-.007.099-.012.196-.016.294zM6.998 72.141c0-.093.001-.187.004-.282l-.004.282zM7.012 73.13c-.009-.086-.017-.173-.024-.26.007.087.015.174.024.26zM7.026 74.116l-.052-.232c.017.078.033.156.052.232z" transform="translate(-10 -10) translate(48 49)"/>
                                    <path fill="#5DE0BF" d="M7.019 73.123c-.014-.08-.026-.163-.038-.246.012.083.024.165.038.246zM6.98 70.154l.04-.308-.04.308zM7.957 67.148c.027-.098.058-.197.086-.296-.028.099-.059.198-.086.296zM7.946 66.173c.034-.114.073-.231.108-.346-.035.115-.074.232-.108.346zM6.97 68.13c.02-.087.038-.173.06-.26-.022.087-.04.173-.06.26zM6.973 69.156c.018-.104.034-.207.054-.312-.02.105-.036.208-.054.312zM6.985 71.15c.01-.1.018-.199.03-.3-.012.1-.02.2-.03.3zM7.032 74.109c-.023-.071-.043-.145-.064-.218.02.073.041.147.064.218zM7.005 72.136c-.005-.09-.008-.18-.01-.272.002.092.005.182.01.272zM11.234 78.055c-.16-.032-.316-.068-.468-.11.152.042.308.078.468.11zM10.1 78.035c-.068-.021-.134-.046-.2-.07.066.024.132.049.2.07zM7.038 75.1c-.027-.065-.051-.133-.076-.2.025.067.049.135.076.2zM12.186 78.007c-.126-.002-.25-.008-.372-.014.123.006.246.012.372.014z" transform="translate(-10 -10) translate(48 49)"/>
                                    <path fill="#5DE0BF" d="M12.169 78.015c-.114-.008-.227-.018-.338-.03.11.012.224.022.338.03zM15 77.885c-1.072.16-2.076.237-3 .23.924.007 1.928-.07 3-.23zM10.093 78.04c-.063-.025-.125-.053-.186-.08.061.027.123.055.186.08zM11.156 78.023c-.105-.014-.21-.028-.312-.046.102.018.207.032.312.046zM8.047 76.08c-.033-.052-.063-.106-.094-.16.031.054.06.108.094.16zM7.044 75.091c-.031-.059-.059-.121-.088-.182.03.06.057.123.088.182zM9.084 77.045l-.168-.09c.055.031.11.06.168.09z" transform="translate(-10 -10) translate(48 49)"/>
                                    <path fill="#5DE0BF" d="M8.045 76.062c-.032-.04-.06-.083-.09-.124.03.04.058.084.09.124zM9.057 77.044c-.038-.03-.077-.058-.114-.088.037.03.076.059.114.088z" transform="translate(-10 -10) translate(48 49)"/>
                                    <path fill="#5DE0BF" d="M9.073 77.047c-.05-.03-.099-.062-.146-.094.047.032.097.063.146.094zM6.969 68.153l.062-.306-.062.306zM10.896 57.204l.208-.408c-.07.137-.14.272-.208.408zM10.899 58.206l.202-.412-.202.412zM11.896 57.199l.208-.398-.208.398zM9.902 59.206l.196-.412-.196.412zM9.906 60.206c.061-.137.125-.274.188-.412-.063.138-.127.275-.188.412zM12.908 55.167l.184-.334-.184.334zM13.056 53.9l-.112.2.112-.2zM11.898 56.188l.204-.376c-.07.126-.136.25-.204.376zM9.91 61.205l.18-.41-.18.41zM8.915 62.202c.055-.134.113-.27.17-.404-.057.135-.115.27-.17.404zM8.92 63.2c.052-.133.106-.266.16-.4-.054.134-.108.267-.16.4zM8.926 64.196c.047-.13.099-.26.148-.392-.05.131-.1.262-.148.392zM7.932 64.19c.044-.126.09-.253.136-.38-.045.127-.092.254-.136.38z" transform="translate(-10 -10) translate(48 49)"/>
                                    <g fill="#E1EAF8">
                                        <path d="M5.368 51.128l.298-.554-.298.554zM2.69 72.064c-.076-.042-.15-.086-.223-.131.073.045.147.09.223.131zM1.798 58.976c.052-.143.104-.286.159-.43-.055.144-.107.287-.159.43zM3.085 72.261c-.077-.034-.153-.07-.227-.107.074.038.15.073.227.107zM2.32 71.838c-.079-.053-.155-.11-.23-.17.075.06.151.116.23.17zM.732 62.406c.06-.24.124-.482.192-.728-.068.246-.132.489-.192.728zM1.66 71.292c-.106-.105-.205-.217-.3-.334.095.116.194.229.3.334zM5.87 50.198c.11-.201.223-.404.336-.607-.113.203-.226.406-.336.607zM8.724 72.6v-.002l-.041.007.04-.006zM1.976 71.58c-.11-.09-.216-.186-.317-.288.1.102.207.198.317.289zM3.505 72.428c-.079-.028-.158-.056-.234-.086.076.03.155.058.234.086zM55.208.017c-8.024 3.975-17.406 10.91-26.358 19.948-8.627 8.711-16.587 19.105-21.928 28.362l5.447 5.5c5.217-10.105 14.155-22.172 23.956-32.068 7.602-7.675 15.513-13.832 22.64-17.949L55.208.017zM5.08 72.777l-.173-.022.173.022zM1.254 60.576c.045-.143.089-.284.137-.43-.048.145-.092.287-.137.43zM5.58 72.818l-.16-.01.16.01zM4.886 52.047l.274-.522-.274.522zM1.01 61.383c.044-.152.087-.305.134-.46-.047.155-.09.308-.134.46zM3.947 72.565c-.081-.022-.163-.043-.242-.067.08.024.161.045.242.067zM6.077 72.834l-.124-.001h.124zM6.391 49.259c.137-.244.277-.489.418-.733l-.418.733zM4.593 72.709c-.06-.01-.117-.023-.175-.035.058.012.115.025.175.035zM3.984 53.855l.237-.486c-.08.162-.16.324-.237.486zM3.166 55.615c.069-.154.138-.308.21-.462-.072.155-.141.308-.21.462zM.134 66.997C.13 66.896.13 66.793.13 66.69c0 .103 0 .206.003.307zM.423 63.823c.024-.13.052-.262.079-.393-.027.131-.055.264-.079.393zM.163 67.564c-.008-.098-.014-.196-.02-.296.006.1.012.198.02.296zM.134 66.407c.003-.105.008-.212.013-.32-.005.108-.01.215-.013.32zM1.515 59.782c.048-.142.096-.284.146-.427-.05.143-.098.285-.146.427zM.222 65.16c.013-.116.03-.233.044-.35l-.044.35zM2.437 57.322l.182-.442-.182.442zM2.79 56.475l.195-.45-.195.45zM.164 65.794c.007-.11.018-.222.029-.334-.011.112-.022.225-.03.334zM.222 68.105c-.013-.094-.025-.188-.035-.283.01.095.022.19.035.283zM.589 69.579c-.031-.082-.062-.164-.09-.249.028.085.059.167.09.249zM.564 63.125c.033-.15.07-.305.107-.457-.037.152-.074.307-.107.457zM3.564 54.741c.073-.156.147-.315.223-.473-.076.158-.15.317-.223.473zM1.001 70.436c-.046-.078-.094-.155-.136-.235.042.08.09.157.136.235zM1.27 70.835c-.059-.079-.119-.158-.174-.241.055.083.115.162.174.241zM4.425 52.957c.083-.167.168-.334.254-.502l-.254.502zM.777 70.02c-.038-.08-.077-.159-.11-.24.033.081.072.16.11.24zM2.106 58.156c.056-.145.112-.29.17-.435l-.17.435zM.434 69.113c-.024-.085-.048-.171-.07-.26.021.089.046.175.07.26zM.312 68.621c-.018-.089-.036-.178-.052-.27.016.092.034.181.052.27zM.308 64.502c.018-.12.04-.245.061-.367-.02.122-.042.246-.06.367z" transform="translate(-10 -10) translate(48 49) translate(7 5)"/>
                                    </g>
                                    <path fill="#5DE0BF" d="M13.548 53.202l-.41.748-.18.34c-.111.206-.222.413-.33.619-.068.128-.133.255-.2.383-.098.189-.196.377-.292.565-.07.136-.137.27-.205.405-.09.178-.18.356-.267.533-.07.14-.137.278-.204.416l-.25.512-.199.42c-.078.166-.156.331-.232.497-.066.14-.13.28-.194.42-.074.162-.147.323-.218.483-.063.14-.125.28-.185.42-.07.158-.138.315-.205.471-.06.14-.12.28-.177.418l-.192.46-.168.413-.178.451c-.054.136-.106.272-.158.407l-.167.444-.146.397c-.053.147-.104.293-.155.439l-.135.387c-.05.146-.097.29-.144.436-.04.124-.083.249-.122.372l-.134.438c-.036.117-.073.236-.107.353-.046.158-.089.314-.132.47l-.084.301c-.067.25-.13.498-.188.743-.022.09-.04.177-.06.266-.036.156-.073.313-.105.467-.022.105-.04.207-.061.31-.027.135-.054.27-.078.402-.019.108-.035.212-.052.318-.02.125-.042.251-.06.375-.015.106-.027.209-.04.314-.016.119-.032.238-.044.356l-.03.307c-.01.115-.02.229-.028.34-.007.102-.012.2-.016.3-.005.11-.01.219-.012.326-.003.098-.004.193-.004.289 0 .105 0 .21.003.313.002.093.006.185.01.277.005.1.01.201.019.3.006.09.014.177.023.265.01.097.022.193.035.288.01.085.023.168.036.25.016.095.034.186.052.277.016.08.032.16.05.237.022.09.045.177.07.264.02.075.04.15.063.222.027.086.057.17.088.253.025.069.048.138.075.205.034.084.072.164.11.244.028.062.055.126.085.186.042.082.088.16.134.24.032.053.06.109.094.16.053.086.112.166.17.247.03.041.058.085.089.125.092.119.19.233.292.342.1.103.203.2.31.293.037.032.076.06.113.09.073.06.148.118.225.173.047.033.096.064.145.096.07.047.143.092.218.135.054.031.109.062.165.091.073.039.147.075.222.11.06.027.12.056.182.082.075.031.153.06.23.088.066.023.13.049.197.071.077.025.158.046.237.068.15.042.303.08.461.112.058.012.114.025.172.036.101.017.204.031.308.046.056.008.112.016.17.022.109.013.22.023.332.031.053.004.105.009.158.011.12.008.242.013.365.016h.122c.788.009 1.642-.071 2.555-.232l.04-.008c-2.408-3.383-.679-10.574 3.575-19.148L13.659 53l-.11.202z" transform="translate(-10 -10) translate(48 49)"/>
                                    <path fill="#434C54" d="M83.658 26.917L79.8 22.996c.006-.015.014-.03.021-.044l.408-.845-.006-.005c4.207-9.077 4.58-16.03 1.033-19.636-3.557-3.614-10.405-3.243-19.34 1.029l-.007-.006-.865.431c-8.456 4.216-17.91 11.414-26.62 20.267-9.023 9.17-17.649 20.585-23.074 30.537C6.83 63.013 5.37 68.511 5.419 72.16l-3.93 3.994c-1.985 2.018-1.985 5.302 0 7.32C2.46 84.458 3.75 85 5.121 85c1.373 0 2.663-.542 3.632-1.527l3.923-3.987.11.002h.001c11.32 0 32.835-14.993 47.097-29.487 5.918-6.014 11.082-12.378 15.087-18.533l2.073 2.108c.64.649.914 2.53.088 5.27-.966 3.205-3.158 6.658-6.174 9.722-3.188 3.24-6.918 5.596-10.234 6.465-2.484.65-3.987 3.226-3.349 5.741.207.816.625 1.561 1.21 2.155.871.885 2.076 1.393 3.307 1.393.394 0 .788-.051 1.172-.151 4.958-1.299 10.11-4.475 14.507-8.944 4.207-4.275 7.274-9.3 8.636-14.145 1.632-5.805.727-10.836-2.55-14.165zM6.855 81.605c-.465.472-1.08.732-1.733.732-.654 0-1.27-.26-1.734-.732-.973-.988-.973-2.596 0-3.585l2.588-2.629c.344.909.82 1.61 1.352 2.148.596.606 1.317 1.07 2.156 1.395l-2.63 2.671zm51.13-33.471c-8.392 8.528-18.151 16.198-26.83 21.458l-2.37 1.39c-6.454 3.665-12.15 5.843-15.998 5.843-1.61 0-2.808-.388-3.56-1.153-2.524-2.565-.856-9.92 4.461-19.673.042-.077.086-.154.127-.231l1.368-2.407c5.332-9.088 13.07-19.106 21.14-27.307 8.212-8.347 17.07-15.173 25.05-19.313l2.524-1.232c7.312-3.34 12.896-3.782 15.46-1.175C81.93 6.948 81.5 12.63 78.22 20.066l-1.21 2.567c-4.074 8.121-10.798 17.14-19.025 25.5zm25.658-7.772c-1.243 4.42-4.074 9.037-7.971 12.998-4.065 4.131-8.783 7.056-13.283 8.235-.678.177-1.414-.032-1.906-.533-.254-.257-.436-.584-.527-.942-.28-1.103.368-2.23 1.443-2.51 3.766-.987 7.942-3.602 11.457-7.174 3.313-3.367 5.737-7.21 6.825-10.82.489-1.622.697-3.177.602-4.498-.103-1.445-.567-2.623-1.34-3.41l-2.515-2.555c.748-1.232 1.448-2.453 2.094-3.657l3.237 3.288c2.577 2.62 3.246 6.732 1.884 11.578z" transform="translate(-10 -10) translate(48 49)"/>
                                    <path fill="#FFA816" d="M45.602 45.601c-.531.532-1.393.532-1.923 0l-5.28-5.28c-.532-.53-.532-1.391 0-1.923.53-.53 1.392-.53 1.922 0l5.28 5.28c.532.531.532 1.392 0 1.923z" transform="translate(-10 -10) translate(48 49)"/>
                                </g>
                            </g>
                        </g>
                    </g>
                </g>
            </g>
        </g>
    </g>
</svg>
