<svg xmlns="http://www.w3.org/2000/svg" xmlns:xlink="http://www.w3.org/1999/xlink" width="162" height="162" viewBox="0 0 162 162">
    <defs>
        <circle id="rsnzcb9g3a" cx="81" cy="81" r="81"/>
    </defs>
    <g fill="none" fill-rule="evenodd">
        <g>
            <g>
                <g>
                    <g transform="translate(-638 -1041) translate(231 1009) translate(336) translate(71 32)">
                        <mask id="ivfdwg59ab" fill="#fff">
                            <use xlink:href="#rsnzcb9g3a"/>
                        </mask>
                        <use fill="#D8D8D8" xlink:href="#rsnzcb9g3a"/>
                        <g mask="url(#ivfdwg59ab)">
                            <g fill-rule="nonzero">
                                <path fill="#2196F3" d="M91 0C40.82 0 0 40.82 0 91s40.82 91 91 91 91-40.82 91-91S141.18 0 91 0z" transform="translate(-10 -10)"/>
                                <g>
                                    <path fill="#434C54" d="M7.5 0h-6C.672 0 0 .672 0 1.5v6C0 8.328.672 9 1.5 9h6C8.328 9 9 8.328 9 7.5v-6C9 .672 8.328 0 7.5 0zM6 6H3V3h3v3zM7.5 70h-6c-.828 0-1.5.672-1.5 1.5v6c0 .828.672 1.5 1.5 1.5h6c.828 0 1.5-.672 1.5-1.5v-6c0-.828-.672-1.5-1.5-1.5zM6 76H3v-3h3v3zM77.5 0h-6c-.828 0-1.5.672-1.5 1.5v6c0 .828.672 1.5 1.5 1.5h6c.828 0 1.5-.672 1.5-1.5v-6c0-.828-.672-1.5-1.5-1.5zM76 6h-3V3h3v3zM77.5 70h-6c-.828 0-1.5.672-1.5 1.5v6c0 .828.672 1.5 1.5 1.5h6c.828 0 1.5-.672 1.5-1.5v-6c0-.828-.672-1.5-1.5-1.5zM76 76h-3v-3h3v3zM4.5 12c-.828 0-1.5.672-1.5 1.5v3c0 .828.672 1.5 1.5 1.5S6 17.328 6 16.5v-3c0-.828-.672-1.5-1.5-1.5zM4.5 21c-.828 0-1.5.729-1.5 1.628v3.744c0 .9.672 1.628 1.5 1.628S6 27.271 6 26.372v-3.744C6 21.728 5.328 21 4.5 21zM4.5 31c-.828 0-1.5.729-1.5 1.628v3.744c0 .9.672 1.628 1.5 1.628S6 37.271 6 36.372v-3.744C6 31.728 5.328 31 4.5 31zM4.5 42c-.828 0-1.5.672-1.5 1.5v3c0 .828.672 1.5 1.5 1.5S6 47.328 6 46.5v-3c0-.828-.672-1.5-1.5-1.5zM4.5 51c-.828 0-1.5.672-1.5 1.5v3c0 .828.672 1.5 1.5 1.5S6 56.328 6 55.5v-3c0-.828-.672-1.5-1.5-1.5zM4.5 61c-.828 0-1.5.672-1.5 1.5v3c0 .828.672 1.5 1.5 1.5S6 66.328 6 65.5v-3c0-.828-.672-1.5-1.5-1.5zM74.5 12c-.828 0-1.5.672-1.5 1.5v3c0 .828.672 1.5 1.5 1.5s1.5-.672 1.5-1.5v-3c0-.828-.672-1.5-1.5-1.5zM74.5 21c-.828 0-1.5.729-1.5 1.628v3.744c0 .9.672 1.628 1.5 1.628s1.5-.729 1.5-1.628v-3.744c0-.9-.672-1.628-1.5-1.628zM74.5 31c-.828 0-1.5.729-1.5 1.628v3.744c0 .9.672 1.628 1.5 1.628s1.5-.729 1.5-1.628v-3.744c0-.9-.672-1.628-1.5-1.628zM74.5 42c-.828 0-1.5.672-1.5 1.5v3c0 .828.672 1.5 1.5 1.5s1.5-.672 1.5-1.5v-3c0-.828-.672-1.5-1.5-1.5zM74.5 51c-.828 0-1.5.672-1.5 1.5v3c0 .828.672 1.5 1.5 1.5s1.5-.672 1.5-1.5v-3c0-.828-.672-1.5-1.5-1.5zM74.5 61c-.828 0-1.5.672-1.5 1.5v3c0 .828.672 1.5 1.5 1.5s1.5-.672 1.5-1.5v-3c0-.828-.672-1.5-1.5-1.5zM17.5 73h-3c-.828 0-1.5.672-1.5 1.5s.672 1.5 1.5 1.5h3c.828 0 1.5-.672 1.5-1.5s-.672-1.5-1.5-1.5zM26.5 73h-3c-.828 0-1.5.672-1.5 1.5s.672 1.5 1.5 1.5h3c.828 0 1.5-.672 1.5-1.5s-.672-1.5-1.5-1.5zM36.5 73h-3c-.828 0-1.5.672-1.5 1.5s.672 1.5 1.5 1.5h3c.828 0 1.5-.672 1.5-1.5s-.672-1.5-1.5-1.5zM45.5 73h-3c-.828 0-1.5.672-1.5 1.5s.672 1.5 1.5 1.5h3c.828 0 1.5-.672 1.5-1.5s-.672-1.5-1.5-1.5zM55.5 73h-3c-.828 0-1.5.672-1.5 1.5s.672 1.5 1.5 1.5h3c.828 0 1.5-.672 1.5-1.5s-.672-1.5-1.5-1.5zM64.5 73h-3c-.828 0-1.5.672-1.5 1.5s.672 1.5 1.5 1.5h3c.828 0 1.5-.672 1.5-1.5s-.672-1.5-1.5-1.5zM17.5 3h-3c-.828 0-1.5.672-1.5 1.5S13.672 6 14.5 6h3c.828 0 1.5-.672 1.5-1.5S18.328 3 17.5 3zM26.5 3h-3c-.828 0-1.5.672-1.5 1.5S22.672 6 23.5 6h3c.828 0 1.5-.672 1.5-1.5S27.328 3 26.5 3zM36.5 3h-3c-.828 0-1.5.672-1.5 1.5S32.672 6 33.5 6h3c.828 0 1.5-.672 1.5-1.5S37.328 3 36.5 3zM45.5 3h-3c-.828 0-1.5.672-1.5 1.5S41.672 6 42.5 6h3c.828 0 1.5-.672 1.5-1.5S46.328 3 45.5 3zM55.5 3h-3c-.828 0-1.5.672-1.5 1.5S51.672 6 52.5 6h3c.828 0 1.5-.672 1.5-1.5S56.328 3 55.5 3zM64.5 3h-3c-.828 0-1.5.672-1.5 1.5S60.672 6 61.5 6h3c.828 0 1.5-.672 1.5-1.5S65.328 3 64.5 3zM64.468 13H14.532c-.846 0-1.532.687-1.532 1.534v50.932c0 .847.686 1.534 1.532 1.534h49.936c.846 0 1.532-.687 1.532-1.534V14.534c0-.847-.686-1.534-1.532-1.534z" transform="translate(-10 -10) translate(52 52)"/>
                                    <path fill="#FFF" d="M62.936 63.932L16.064 63.932 16.064 16.068 62.936 16.068z" transform="translate(-10 -10) translate(52 52)"/>
                                    <path fill="#FFC843" d="M58.459 19H20.54c-.85 0-1.541.691-1.541 1.544V33.36c0 .853.69 1.544 1.541 1.544h6.166c.85 0 1.541-.69 1.541-1.544v-4.632h6.628v23.007h-4.624c-.851 0-1.541.692-1.541 1.544v6.177c0 .853.69 1.544 1.54 1.544h18.497c.851 0 1.541-.691 1.541-1.544v-6.177c0-.852-.69-1.544-1.54-1.544h-4.625V28.728h6.628v4.632c0 .853.69 1.544 1.541 1.544h6.166c.85 0 1.541-.69 1.541-1.544V20.544c0-.853-.69-1.544-1.541-1.544zm-1.542 12.816h-3.082v-4.632c0-.853-.69-1.544-1.542-1.544h-9.71c-.851 0-1.542.691-1.542 1.544v26.095c0 .853.69 1.545 1.542 1.545h4.624v3.088H31.793v-3.088h4.624c.851 0 1.542-.692 1.542-1.545V27.184c0-.853-.69-1.544-1.542-1.544h-9.71c-.851 0-1.542.691-1.542 1.544v4.632h-3.082v-9.728h34.834v9.728z" transform="translate(-10 -10) translate(52 52)"/>
                                </g>
                            </g>
                        </g>
                    </g>
                </g>
            </g>
        </g>
    </g>
</svg>
