<svg xmlns="http://www.w3.org/2000/svg" xmlns:xlink="http://www.w3.org/1999/xlink" width="162" height="162" viewBox="0 0 162 162">
    <defs>
        <circle id="i25phdqxba" cx="81" cy="81" r="81"/>
    </defs>
    <g fill="none" fill-rule="evenodd">
        <g>
            <g>
                <g>
                    <g transform="translate(-976 -1495) translate(231 1463) translate(674) translate(71 32)">
                        <mask id="ndxlr63nnb" fill="#fff">
                            <use xlink:href="#i25phdqxba"/>
                        </mask>
                        <use fill="#D8D8D8" xlink:href="#i25phdqxba"/>
                        <g mask="url(#ndxlr63nnb)">
                            <g fill-rule="nonzero">
                                <path fill="#2196F3" d="M91 0C40.82 0 0 40.82 0 91s40.82 91 91 91 91-40.82 91-91S141.18 0 91 0z" transform="translate(-10 -10)"/>
                                <g>
                                    <path fill="#FFF" d="M81.8 23.895h-5.925C74.117 11.507 63.875 2 51.5 2s-22.617 9.507-24.375 21.895H21.2C10.044 23.895 1 33.32 1 44.947 1 56.575 10.044 66 21.2 66h60.6c11.156 0 20.2-9.426 20.2-21.053s-9.044-21.052-20.2-21.052z" transform="translate(-10 -10) translate(39 51)"/>
                                    <path fill="#E1EAF8" d="M8.722 51.506c0-11.609 9.103-21.019 20.332-21.019h5.963c1.77-12.368 12.08-21.86 24.534-21.86 4.958 0 9.575 1.507 13.449 4.097C68.5 6.232 61.145 2 52.83 2c-12.456 0-22.765 9.492-24.534 21.86h-5.964C11.103 23.86 2 33.27 2 44.879 2 52.6 6.03 59.345 12.032 63c-2.092-3.304-3.31-7.252-3.31-11.494z" transform="translate(-10 -10) translate(39 51)"/>
                                    <path fill="#76FFD9" d="M68.594 56.249L53.488 33.091C53.043 32.409 52.298 32 51.5 32c-.799 0-1.543.41-1.989 1.091L34.406 56.249c-.493.755-.54 1.73-.124 2.532.414.803 1.227 1.305 2.112 1.305h7.325v16.45c0 1.36 1.072 2.464 2.394 2.464h10.774c1.322 0 2.394-1.103 2.394-2.464v-16.45h7.325c.883 0 1.696-.502 2.112-1.305.416-.803.369-1.777-.124-2.532z" transform="translate(-10 -10) translate(39 51)"/>
                                    <path fill="#FFF" d="M68.604 57.174L53.901 34.088c-.433-.68-1.159-1.088-1.935-1.088-.777 0-1.501.408-1.936 1.088L48 37.277l14.154 22.225c.287.45.415.976.389 1.498h4.127c.86 0 1.651-.5 2.056-1.3.405-.802.359-1.773-.122-2.526z" transform="translate(-10 -10) translate(39 51)"/>
                                    <path fill="#434C54" d="M82.245 22.06h-4.566c-1.129-5.908-4.103-11.297-8.467-15.293C64.446 2.403 58.333 0 52 0S39.554 2.403 34.788 6.767c-4.364 3.996-7.338 9.385-8.467 15.293h-4.566C9.76 22.06 0 32.292 0 44.87s9.76 22.81 21.755 22.81h20.83v9.301c0 2.216 1.795 4.019 4 4.019h10.83c2.205 0 3.999-1.803 3.999-4.019v-9.3h20.831C94.24 67.68 104 57.448 104 44.87c0-12.58-9.76-22.811-21.755-22.811zM58.23 76.982c0 .451-.366.819-.815.819h-10.83c-.45 0-.815-.368-.815-.82V59.236h-8.956c-.301 0-.577-.166-.719-.434-.142-.268-.126-.59.041-.841l15.186-22.732c.152-.228.406-.364.678-.364.271 0 .524.135.676.362L67.862 57.96c.168.25.185.573.043.84-.142.268-.418.435-.719.435H58.23v17.747zm24.015-12.5H61.414v-2.048h5.772c1.48 0 2.832-.815 3.528-2.128.696-1.313.617-2.896-.209-4.13L55.32 33.443c-.744-1.114-1.985-1.779-3.32-1.779-1.334 0-2.575.665-3.32 1.779L33.492 56.177c-.824 1.235-.903 2.817-.208 4.128.695 1.313 2.047 2.129 3.529 2.129h5.772v2.048H21.755c-10.24 0-18.572-8.798-18.572-19.612 0-10.813 8.332-19.61 18.572-19.61h7.297l.194-1.377c.802-5.708 3.533-10.947 7.687-14.751C41.111 5.306 46.462 3.199 52 3.199s10.89 2.107 15.068 5.933c4.154 3.804 6.884 9.043 7.687 14.751l.193 1.376h7.297c10.24 0 18.572 8.798 18.572 19.611 0 10.814-8.332 19.612-18.572 19.612z" transform="translate(-10 -10) translate(39 51)"/>
                                    <path fill="#E1EAF8" d="M96.406 47c-.88 0-1.593-.716-1.593-1.599 0-7.28-5.482-13.204-12.22-13.204-.88 0-1.593-.715-1.593-1.598 0-.883.713-1.599 1.594-1.599C91.088 29 98 36.358 98 45.401c0 .883-.713 1.599-1.594 1.599z" transform="translate(-10 -10) translate(39 51)"/>
                                </g>
                            </g>
                        </g>
                    </g>
                </g>
            </g>
        </g>
    </g>
</svg>
