<svg xmlns="http://www.w3.org/2000/svg" xmlns:xlink="http://www.w3.org/1999/xlink" width="162" height="162" viewBox="0 0 162 162">
    <defs>
        <circle id="1xb4cbjgha" cx="81" cy="81" r="81"/>
    </defs>
    <g fill="none" fill-rule="evenodd">
        <g>
            <g>
                <g transform="translate(-302 -4194) translate(231 4162) translate(71 32)">
                    <mask id="yb76bo0jvb" fill="#fff">
                        <use xlink:href="#1xb4cbjgha"/>
                    </mask>
                    <use fill="#D8D8D8" xlink:href="#1xb4cbjgha"/>
                    <g mask="url(#yb76bo0jvb)">
                        <g fill-rule="nonzero">
                            <path fill="#2196F3" d="M91 0C40.82 0 0 40.82 0 91s40.82 91 91 91 91-40.82 91-91S141.18 0 91 0z" transform="translate(-10 -10)"/>
                            <g>
                                <path fill="#CEE1F2" d="M13.875 70.203V21.797C13.875 11.967 21.99 4 32 4H21.125C11.115 4 3 11.968 3 21.797v48.406C3 80.033 11.115 88 21.125 88H32c-10.01 0-18.125-7.968-18.125-17.797z" transform="translate(-10 -10) translate(58 45)"/>
                                <path fill="#FFC843" d="M21.53 7.11c-7.914 0-14.353 6.378-14.353 14.218v48.344c0 7.84 6.439 14.219 14.353 14.219h24.94c7.914 0 14.353-6.379 14.353-14.22V21.329c0-7.84-6.439-14.219-14.353-14.219H21.53z" transform="translate(-10 -10) translate(58 45)"/>
                                <path fill="#434C54" d="M46.47 91H21.53C9.66 91 0 81.432 0 69.672V21.328C0 9.568 9.659 0 21.53 0h24.94C58.34 0 68 9.568 68 21.328v48.344C68 81.432 58.341 91 46.47 91zM21.53 7.11c-7.914 0-14.353 6.378-14.353 14.218v48.344c0 7.84 6.439 14.219 14.353 14.219h24.94c7.914 0 14.353-6.379 14.353-14.22V21.329c0-7.84-6.439-14.219-14.353-14.219H21.53zm-2.87 45.677c-2.478 0-4.486 1.99-4.486 4.443 0 2.454 2.008 4.444 4.486 4.444 2.477 0 4.485-1.99 4.485-4.444 0-2.454-2.008-4.443-4.485-4.443zm15.43 0c-2.478 0-4.486 1.99-4.486 4.443 0 2.454 2.008 4.444 4.486 4.444 2.477 0 4.485-1.99 4.485-4.444 0-2.454-2.008-4.443-4.485-4.443zM18.66 67.895c-2.478 0-4.486 1.989-4.486 4.443 0 2.454 2.008 4.443 4.486 4.443 2.477 0 4.485-1.99 4.485-4.443 0-2.454-2.008-4.443-4.485-4.443zm15.43 0c-2.478 0-4.486 1.989-4.486 4.443 0 2.454 2.008 4.443 4.486 4.443 2.477 0 4.485-1.99 4.485-4.443 0-2.454-2.008-4.443-4.485-4.443z" transform="translate(-10 -10) translate(58 45)"/>
                                <path fill="#2ECAAA" d="M53.646 26.838c0-1.963-1.606-3.555-3.588-3.555H17.942c-1.982 0-3.588 1.592-3.588 3.555s1.606 3.555 3.588 3.555h32.116c1.982 0 3.588-1.592 3.588-3.555zM53.108 73.227V56.342c0-1.963-1.606-3.555-3.588-3.555s-3.589 1.592-3.589 3.555v16.885c0 1.963 1.607 3.554 3.589 3.554s3.588-1.591 3.588-3.554z" transform="translate(-10 -10) translate(58 45)"/>
                                <path fill="#FFF" d="M22.744 41.5c0 2.485-1.957 4.5-4.372 4.5C15.958 46 14 43.985 14 41.5s1.958-4.5 4.372-4.5c2.415 0 4.372 2.015 4.372 4.5zM33.587 37c-2.414 0-4.372 2.015-4.372 4.5s1.958 4.5 4.372 4.5c2.415 0 4.373-2.015 4.373-4.5S36.002 37 33.587 37zm15.04 0c-2.414 0-4.371 2.015-4.371 4.5s1.957 4.5 4.372 4.5C51.042 46 53 43.985 53 41.5S51.042 37 48.628 37z" transform="translate(-10 -10) translate(58 45)"/>
                            </g>
                        </g>
                    </g>
                </g>
            </g>
        </g>
    </g>
</svg>
