<svg xmlns="http://www.w3.org/2000/svg" width="182" height="182" viewBox="0 0 182 182">
    <g fill="none" fill-rule="evenodd">
        <g fill-rule="nonzero">
            <g>
                <g>
                    <g>
                        <path fill="#2196F3" d="M91 0C40.82 0 0 40.82 0 91s40.82 91 91 91 91-40.82 91-91S141.18 0 91 0z" transform="translate(-628 -4184) translate(231 4162) translate(336) translate(61 22)"/>
                        <g>
                            <path fill="#434C54" stroke="#434C54" stroke-width="6" d="M42 42v42H15.75C7.057 83.987.013 76.943 0 68.25V42h42zM84 42v26.25c-.013 8.693-7.057 15.737-15.75 15.75H42V42h42zM84 15.75V42H42V0h26.25C76.943.013 83.987 7.057 84 15.75zM42 0v42H0V15.75C.013 7.057 7.057.013 15.75 0H42z" transform="translate(-628 -4184) translate(231 4162) translate(336) translate(61 22) translate(49 49)"/>
                            <path fill="#FFF" d="M42 42v42H15.75C7.057 83.987.013 76.943 0 68.25V42h42z" transform="translate(-628 -4184) translate(231 4162) translate(336) translate(61 22) translate(49 49)"/>
                            <path fill="#455A64" d="M84 42v26.25c-.013 8.693-7.057 15.737-15.75 15.75H42V42h42z" transform="translate(-628 -4184) translate(231 4162) translate(336) translate(61 22) translate(49 49)"/>
                            <path fill="#FFC107" d="M84 15.75V42H42V0h26.25C76.943.013 83.987 7.057 84 15.75z" transform="translate(-628 -4184) translate(231 4162) translate(336) translate(61 22) translate(49 49)"/>
                            <path fill="#4CAF50" d="M42 0v42H0V15.75C.013 7.057 7.057.013 15.75 0H42z" transform="translate(-628 -4184) translate(231 4162) translate(336) translate(61 22) translate(49 49)"/>
                            <g>
                                <path fill="#FAFAFA" d="M22.75 14h-21C.784 14 0 13.216 0 12.25c0-.967.784-1.75 1.75-1.75h21c.967 0 1.75.784 1.75 1.75 0 .967-.783 1.75-1.75 1.75z" transform="translate(-628 -4184) translate(231 4162) translate(336) translate(61 22) translate(49 49) translate(10 11)"/>
                                <path fill="#FAFAFA" d="M12.25 24.5c-.966 0-1.75-.784-1.75-1.75v-21c0-.966.784-1.75 1.75-1.75.967 0 1.75.784 1.75 1.75v21c0 .967-.783 1.75-1.75 1.75zM61.25 14h-17.5c-.966 0-1.75-.784-1.75-1.75 0-.967.784-1.75 1.75-1.75h17.5c.967 0 1.75.784 1.75 1.75 0 .967-.784 1.75-1.75 1.75z" transform="translate(-628 -4184) translate(231 4162) translate(336) translate(61 22) translate(49 49) translate(10 11)"/>
                                <path fill="#0573D1" d="M19.25 63c-.532.001-1.036-.24-1.369-.654l-14-17.5c-.604-.755-.481-1.857.274-2.46.754-.605 1.856-.483 2.46.272l14 17.5c.603.755.48 1.856-.276 2.46-.309.247-.693.382-1.09.382z" transform="translate(-628 -4184) translate(231 4162) translate(336) translate(61 22) translate(49 49) translate(10 11)"/>
                                <path fill="#0573D1" d="M5.25 63c-.966 0-1.75-.782-1.751-1.75 0-.396.135-.782.382-1.092l14-17.5c.604-.755 1.706-.877 2.46-.273.756.604.878 1.705.274 2.46l-14 17.5c-.332.414-.834.655-1.365.655z" transform="translate(-628 -4184) translate(231 4162) translate(336) translate(61 22) translate(49 49) translate(10 11)"/>
                                <path fill="#FAFAFA" d="M57.75 63c-.615 0-1.185-.323-1.502-.85l-10.5-17.5c-.482-.838-.195-1.908.642-2.39.816-.471 1.858-.212 2.358.587l10.5 17.5c.499.828.232 1.903-.596 2.402-.272.164-.584.251-.902.251z" transform="translate(-628 -4184) translate(231 4162) translate(336) translate(61 22) translate(49 49) translate(10 11)"/>
                            </g>
                        </g>
                    </g>
                </g>
            </g>
        </g>
    </g>
</svg>
