<svg xmlns="http://www.w3.org/2000/svg" xmlns:xlink="http://www.w3.org/1999/xlink" width="162" height="162" viewBox="0 0 162 162">
    <defs>
        <circle id="26ktzarska" cx="81" cy="81" r="81"/>
    </defs>
    <g fill="none" fill-rule="evenodd">
        <g>
            <g>
                <g>
                    <g transform="translate(-638 -3740) translate(231 3708) translate(336) translate(71 32)">
                        <mask id="czh4wc1c7b" fill="#fff">
                            <use xlink:href="#26ktzarska"/>
                        </mask>
                        <use fill="#D8D8D8" xlink:href="#26ktzarska"/>
                        <g mask="url(#czh4wc1c7b)">
                            <g fill-rule="nonzero">
                                <path fill="#2196F3" d="M91 0C40.82 0 0 40.82 0 91s40.82 91 91 91 91-40.82 91-91S141.18 0 91 0z" transform="translate(-10 -10)"/>
                                <g>
                                    <path fill="#FFB400" d="M45 65L55 65 55 80 45 80z" transform="translate(-10 -10) translate(42 48)"/>
                                    <path fill="#FFB400" d="M98 62.229C98 66.52 94.491 70 90.163 70H9.837C5.509 70 2 66.521 2 62.229V9.77C2 5.48 5.509 2 9.837 2h80.326C94.49 2 98 5.48 98 9.771V62.23z" transform="translate(-10 -10) translate(42 48)"/>
                                    <path fill="#FFF" d="M10.806 61C9.811 61 9 60.195 9 59.205V10.851C9 9.831 9.81 9 10.806 9h78.387C90.19 9 91 9.83 91 10.851v48.354c0 .99-.81 1.795-1.807 1.795H10.806z" transform="translate(-10 -10) translate(42 48)"/>
                                    <path fill="#D8E0EA" d="M88.222 9H65v52h23.222c.98 0 1.778-.805 1.778-1.796V10.851C90 9.831 89.202 9 88.222 9z" transform="translate(-10 -10) translate(42 48)"/>
                                    <path fill="#E1EAF8" d="M15.19 59.205V10.851C15.19 9.831 16.002 9 17 9h-6.19C9.813 9 9 9.83 9 10.851v48.354c0 .99.813 1.795 1.81 1.795H17c-.998 0-1.81-.805-1.81-1.795z" transform="translate(-10 -10) translate(42 48)"/>
                                    <path fill="#76FFD9" d="M38 70h24c-.358-2.818-2.794-5-5.752-5H43.751c-2.957 0-5.393 2.182-5.751 5z" transform="translate(-10 -10) translate(42 48)"/>
                                    <path fill="#FFC843" d="M89.931 2H84c4.457 0 8.069 3.48 8.069 7.771V62.23C92.069 66.52 88.457 70 84 70h5.931C94.387 70 98 66.521 98 62.229V9.77C98 5.48 94.387 2 89.931 2z" transform="translate(-10 -10) translate(42 48)"/>
                                    <path fill="#FFB400" d="M71 81c0 2.209-1.818 4-4.06 4H32.06C29.819 85 28 83.209 28 81c0-2.21 1.819-4 4.06-4H66.94C69.182 77 71 78.79 71 81z" transform="translate(-10 -10) translate(42 48)"/>
                                    <path fill="#FFC843" d="M67.058 77H61c2.177 0 3.942 1.79 3.942 4 0 2.209-1.765 4-3.942 4h6.058C69.236 85 71 83.209 71 81c0-2.21-1.764-4-3.942-4z" transform="translate(-10 -10) translate(42 48)"/>
                                    <path fill="#FFA816" d="M36.768 81c0-2.21 1.895-4 4.232-4h-8.769C29.894 77 28 78.79 28 81c0 2.209 1.895 4 4.231 4H41c-2.337 0-4.232-1.791-4.232-4z" transform="translate(-10 -10) translate(42 48)"/>
                                    <path fill="#5DE0BF" d="M89.193 9H10.806C9.811 9 9 9.814 9 10.815V16h82v-5.186c0-1-.81-1.814-1.807-1.814z" transform="translate(-10 -10) translate(42 48)"/>
                                    <path fill="#00C395" d="M15.19 10.814c0-1 .812-1.814 1.81-1.814h-6.19C9.813 9 9 9.814 9 10.814V16h6.19v-5.186z" transform="translate(-10 -10) translate(42 48)"/>
                                    <path fill="#E1EAF8" d="M88.215 9H82c.984 0 1.784.83 1.784 1.852v48.352c0 .99-.8 1.796-1.784 1.796h6.215C89.2 61 90 60.195 90 59.204V10.851C90 9.831 89.2 9 88.215 9z" transform="translate(-10 -10) translate(42 48)"/>
                                    <path fill="#76FFD9" d="M88.215 9H82c.984 0 1.784.814 1.784 1.815V16H90v-5.186c0-1-.8-1.814-1.785-1.814zM56 35.667C56 36.955 54.937 38 53.625 38h-33.25C19.063 38 18 36.955 18 35.667v-9.334C18 25.045 19.063 24 20.375 24h33.25C54.937 24 56 25.045 56 26.333v9.334z" transform="translate(-10 -10) translate(42 48)"/>
                                    <path fill="#434C54" d="M89.65 0H9.35C4.193 0 0 4.202 0 9.369v52.98c0 5.166 4.194 9.369 9.35 9.369h33.643V75.7H31.95c-3.088 0-5.602 2.535-5.602 5.65S28.862 87 31.95 87H67.05c3.09 0 5.602-2.535 5.602-5.65s-2.513-5.65-5.602-5.65H56.007v-3.982H89.65c5.156 0 9.35-4.203 9.35-9.369V9.369C99 4.202 94.806 0 89.65 0zM67.05 78.741c1.418 0 2.572 1.171 2.572 2.61 0 1.438-1.154 2.609-2.572 2.609H31.95c-1.418 0-2.572-1.17-2.572-2.61 0-1.438 1.154-2.609 2.572-2.609H67.05zm-21.025-3.04v-3.983h6.952V75.7h-6.952zM95.97 62.348c0 3.49-2.835 6.329-6.32 6.329H9.35c-3.485 0-6.32-2.84-6.32-6.329V9.369c0-3.49 2.835-6.329 6.32-6.329h80.3c3.485 0 6.32 2.84 6.32 6.329v52.98z" transform="translate(-10 -10) translate(42 48)"/>
                                    <path fill="#C1C8D2" d="M18.51 45h37.98c.834 0 1.51-.671 1.51-1.5s-.676-1.5-1.51-1.5H18.51c-.834 0-1.51.671-1.51 1.5s.676 1.5 1.51 1.5zM18.51 52h37.98c.834 0 1.51-.671 1.51-1.5s-.676-1.5-1.51-1.5H18.51c-.834 0-1.51.671-1.51 1.5s.676 1.5 1.51 1.5z" transform="translate(-10 -10) translate(42 48)"/>
                                    <g fill="#969BA1">
                                        <path d="M7.28 7.529h13.152c.82 0 1.484-.673 1.484-1.504 0-.83-.664-1.504-1.484-1.504H7.279c-.82 0-1.484.673-1.484 1.504 0 .83.664 1.504 1.484 1.504zM7.28 14.148h13.152c.82 0 1.484-.674 1.484-1.505 0-.83-.664-1.504-1.484-1.504H7.279c-.82 0-1.484.673-1.484 1.504 0 .83.664 1.505 1.484 1.505zM7.28 20.765h13.152c.82 0 1.484-.673 1.484-1.504 0-.83-.664-1.504-1.484-1.504H7.279c-.82 0-1.484.674-1.484 1.504 0 .831.664 1.504 1.484 1.504zM7.28 27.383h13.152c.82 0 1.484-.673 1.484-1.504 0-.83-.664-1.504-1.484-1.504H7.279c-.82 0-1.484.674-1.484 1.504 0 .831.664 1.504 1.484 1.504zM7.28 34.001h13.152c.82 0 1.484-.673 1.484-1.504 0-.83-.664-1.504-1.484-1.504H7.279c-.82 0-1.484.674-1.484 1.504 0 .831.664 1.504 1.484 1.504zM.118 1.546v36.901c0 .83.664 1.504 1.483 1.504.819 0 1.483-.673 1.483-1.504V1.546c0-.83-.664-1.504-1.483-1.504C.78.042.118.715.118 1.546z" transform="translate(-10 -10) translate(42 48) translate(64 18)"/>
                                    </g>
                                </g>
                            </g>
                        </g>
                    </g>
                </g>
            </g>
        </g>
    </g>
</svg>
