<svg xmlns="http://www.w3.org/2000/svg" xmlns:xlink="http://www.w3.org/1999/xlink" width="162" height="162" viewBox="0 0 162 162">
    <defs>
        <circle id="79t0u0lo6a" cx="81" cy="81" r="81"/>
    </defs>
    <g fill="none" fill-rule="evenodd">
        <g>
            <g>
                <g transform="translate(-302 -587) translate(231 555) translate(71 32)">
                    <mask id="eifnuk086b" fill="#fff">
                        <use xlink:href="#79t0u0lo6a"/>
                    </mask>
                    <use fill="#D8D8D8" xlink:href="#79t0u0lo6a"/>
                    <g mask="url(#eifnuk086b)">
                        <g fill-rule="nonzero">
                            <path fill="#2196F3" d="M91 0C40.82 0 0 40.82 0 91s40.82 91 91 91 91-40.82 91-91S141.18 0 91 0z" transform="translate(-10 -10)"/>
                            <g>
                                <path fill="#FFF" d="M78 71.714C78 75.186 75.186 78 71.714 78H7.286C3.814 78 1 75.186 1 71.714V7.286C1 3.814 3.814 1 7.286 1h64.428C75.186 1 78 3.814 78 7.286v64.428z" transform="translate(-10 -10) translate(52 52)"/>
                                <path fill="#E1EAF8" d="M7.642 71.714V7.286C7.642 3.814 10.488 1 14 1H7.358C3.847 1 1 3.814 1 7.286v64.428C1 75.186 3.847 78 7.358 78H14c-3.512 0-6.358-2.814-6.358-6.286z" transform="translate(-10 -10) translate(52 52)"/>
                                <path fill="#76FFD9" d="M23 64.894C23 67.162 20.986 69 18.5 69c-2.485 0-4.5-1.838-4.5-4.106V16.106C14 13.838 16.015 12 18.5 12c2.486 0 4.5 1.838 4.5 4.106v48.788z" transform="translate(-10 -10) translate(52 52)"/>
                                <path fill="#5DE0BF" d="M16.867 64.894V16.106c0-1.68.877-3.124 2.133-3.76-.439-.222-.923-.346-1.434-.346C15.596 12 14 13.838 14 16.106v48.788C14 67.162 15.597 69 17.566 69c.51 0 .995-.124 1.434-.346-1.256-.636-2.133-2.08-2.133-3.76z" transform="translate(-10 -10) translate(52 52)"/>
                                <path fill="#789DB0" d="M44 64.894C44 67.162 41.985 69 39.5 69S35 67.162 35 64.894V16.106C35 13.838 37.015 12 39.5 12s4.5 1.838 4.5 4.106v48.788zM65 64.894C65 67.162 62.985 69 60.5 69c-2.486 0-4.5-1.838-4.5-4.106V16.106C56 13.838 58.014 12 60.5 12c2.485 0 4.5 1.838 4.5 4.106v48.788z" transform="translate(-10 -10) translate(52 52)"/>
                                <path fill="#FFC843" d="M44 64.894C44 67.162 41.985 69 39.5 69S35 67.162 35 64.894V16.106C35 13.838 37.015 12 39.5 12s4.5 1.838 4.5 4.106v48.788z" transform="translate(-10 -10) translate(52 52)"/>
                                <path fill="#FFB400" d="M37.867 64.894V16.106c0-1.68.877-3.124 2.133-3.76-.44-.222-.923-.346-1.434-.346C36.596 12 35 13.838 35 16.106v48.788C35 67.162 36.597 69 38.566 69c.51 0 .995-.124 1.434-.346-1.256-.636-2.133-2.08-2.133-3.76zM65 64.894C65 67.162 62.985 69 60.5 69c-2.486 0-4.5-1.838-4.5-4.106V16.106C56 13.838 58.014 12 60.5 12c2.485 0 4.5 1.838 4.5 4.106v48.788z" transform="translate(-10 -10) translate(52 52)"/>
                                <path fill="#FF8025" d="M59.867 64.894V16.106c0-1.68.878-3.124 2.133-3.76-.439-.222-.923-.346-1.433-.346C58.597 12 57 13.838 57 16.106v48.788C57 67.162 58.596 69 60.567 69c.51 0 .994-.124 1.433-.346-1.255-.636-2.133-2.08-2.133-3.76z" transform="translate(-10 -10) translate(52 52)"/>
                                <g fill="#969BA1">
                                    <path d="M8.186.004C3.725.004.108 3.603.108 8.042s3.617 8.037 8.078 8.037c4.462 0 8.08-3.598 8.08-8.037 0-4.44-3.618-8.038-8.08-8.038zm0 11.253c-1.781 0-3.232-1.442-3.232-3.215s1.45-3.215 3.232-3.215c1.782 0 3.232 1.442 3.232 3.215s-1.45 3.215-3.232 3.215zM30 25.886c-4.462 0-8.08 3.598-8.08 8.037 0 4.44 3.618 8.038 8.08 8.038s8.08-3.599 8.08-8.038-3.618-8.037-8.08-8.037zm0 11.252c-1.782 0-3.232-1.442-3.232-3.215s1.45-3.215 3.232-3.215c1.782 0 3.232 1.442 3.232 3.215s-1.45 3.215-3.232 3.215zM51.814 9.65c-4.462 0-8.08 3.598-8.08 8.037 0 4.44 3.618 8.038 8.08 8.038 4.461 0 8.078-3.599 8.078-8.038S56.275 9.65 51.814 9.65zm0 11.252c-1.782 0-3.232-1.442-3.232-3.215s1.45-3.215 3.232-3.215c1.781 0 3.232 1.442 3.232 3.215s-1.45 3.215-3.232 3.215z" transform="translate(-10 -10) translate(52 52) translate(10 18)"/>
                                </g>
                                <path fill="#434C54" d="M71.54 0H7.46C3.347 0 0 3.347 0 7.46V71.54C0 75.653 3.347 79 7.46 79H71.54C75.653 79 79 75.653 79 71.54V7.46C79 3.347 75.653 0 71.54 0zm5.042 71.54c0 2.78-2.262 5.042-5.042 5.042H7.46c-2.78 0-5.042-2.262-5.042-5.042V7.46c0-2.78 2.262-5.042 5.042-5.042H71.54c2.78 0 5.043 2.262 5.043 5.042v64.08z" transform="translate(-10 -10) translate(52 52)"/>
                            </g>
                        </g>
                    </g>
                </g>
            </g>
        </g>
    </g>
</svg>
