<svg xmlns="http://www.w3.org/2000/svg" xmlns:xlink="http://www.w3.org/1999/xlink" width="162" height="162" viewBox="0 0 162 162">
    <defs>
        <circle id="33c5rvcl7a" cx="81" cy="81" r="81"/>
    </defs>
    <g fill="none" fill-rule="evenodd">
        <g>
            <g>
                <g>
                    <g transform="translate(-976 -4194) translate(231 4162) translate(674) translate(71 32)">
                        <mask id="f38vsic44b" fill="#fff">
                            <use xlink:href="#33c5rvcl7a"/>
                        </mask>
                        <use fill="#D8D8D8" xlink:href="#33c5rvcl7a"/>
                        <g mask="url(#f38vsic44b)">
                            <g>
                                <path fill="#2196F3" fill-rule="nonzero" d="M91 0C40.82 0 0 40.82 0 91s40.82 91 91 91 91-40.82 91-91S141.18 0 91 0z" transform="translate(-10 -10)"/>
                                <g>
                                    <path fill="#CEE1F2" fill-rule="nonzero" d="M12.44 44.924V18.076C12.44 9.198 19.913 2 29 2h-9.544C10.368 2 3 9.198 3 18.076v26.848C3 53.802 10.368 61 19.456 61H29c-9.088 0-16.56-7.198-16.56-16.076z" transform="translate(-10 -10) translate(44 56)"/>
                                    <path fill="#FFF" d="M75.594 19.01c0-6.988-5.748-12.673-12.813-12.673H19.22c-7.065 0-12.813 5.685-12.813 12.673v25.98c0 6.988 5.748 12.673 12.813 12.673H62.78c7.065 0 12.813-5.685 12.813-12.673V19.01z" transform="translate(-10 -10) translate(44 56)"/>
                                    <path fill="#434C54" fill-rule="nonzero" d="M82 19.01v25.98C82 55.472 73.378 64 62.781 64H19.22C8.622 64 0 55.472 0 44.99V19.01C0 8.528 8.622 0 19.219 0H62.78C73.378 0 82 8.528 82 19.01zm-6.406 0c0-6.988-5.748-12.673-12.813-12.673H19.22c-7.065 0-12.813 5.685-12.813 12.673v25.98c0 6.988 5.748 12.673 12.813 12.673H62.78c7.065 0 12.813-5.685 12.813-12.673V19.01z" transform="translate(-10 -10) translate(44 56)"/>
                                    <path fill="#FFC843" fill-rule="nonzero" d="M24.504 33.743c0 2.187-1.793 3.96-4.004 3.96-2.211 0-4.004-1.773-4.004-3.96 0-2.188 1.793-3.96 4.004-3.96 2.211 0 4.004 1.772 4.004 3.96zM34.273 29.782c-2.21 0-4.003 1.773-4.003 3.96 0 2.188 1.792 3.961 4.003 3.961 2.212 0 4.004-1.773 4.004-3.96 0-2.188-1.792-3.96-4.004-3.96zM48.047 29.782c-2.211 0-4.004 1.773-4.004 3.96 0 2.188 1.793 3.961 4.004 3.961 2.211 0 4.004-1.773 4.004-3.96 0-2.188-1.793-3.96-4.004-3.96zM20.5 43.406c-2.211 0-4.004 1.773-4.004 3.96 0 2.188 1.793 3.96 4.004 3.96 2.211 0 4.004-1.772 4.004-3.96 0-2.187-1.793-3.96-4.004-3.96zM34.273 43.406c-2.21 0-4.003 1.773-4.003 3.96 0 2.188 1.792 3.96 4.003 3.96 2.212 0 4.004-1.772 4.004-3.96 0-2.187-1.792-3.96-4.004-3.96zM48.047 43.406c-2.211 0-4.004 1.773-4.004 3.96 0 2.188 1.793 3.96 4.004 3.96 2.211 0 4.004-1.772 4.004-3.96 0-2.187-1.793-3.96-4.004-3.96zM61.82 43.406c-2.211 0-4.004 1.773-4.004 3.96 0 2.188 1.793 3.96 4.004 3.96 2.212 0 4.004-1.772 4.004-3.96 0-2.187-1.792-3.96-4.004-3.96zM65.984 17.426H16.016c-1.77 0-3.203 1.418-3.203 3.168 0 1.75 1.434 3.168 3.203 3.168h49.968c1.77 0 3.204-1.418 3.204-3.168 0-1.75-1.435-3.168-3.204-3.168z" transform="translate(-10 -10) translate(44 56)"/>
                                </g>
                                <g fill-rule="nonzero">
                                    <path fill="#434C54" stroke="#434C54" d="M17 0C7.626 0 0 7.861 0 17.523v13.954C0 41.14 7.626 49 17 49c9.373 0 17-7.837 17-17.47V17.524C34 7.861 26.373 0 17 0z" transform="translate(-10 -10) translate(104 88)"/>
                                    <path fill="#FFF" stroke="#434C54" d="M30.802 31.53c0 7.844-6.191 14.225-13.802 14.225-7.61 0-13.802-6.405-13.802-14.278V17.523C3.198 9.65 9.389 3.245 17 3.245S30.802 9.65 30.802 17.523v14.008z" transform="translate(-10 -10) translate(104 88)"/>
                                    <path fill="#434C54" d="M16.5 14c-.828 0-1.5.733-1.5 1.636v5.728c0 .903.672 1.636 1.5 1.636s1.5-.733 1.5-1.636v-5.728c0-.903-.672-1.636-1.5-1.636z" transform="translate(-10 -10) translate(104 88)"/>
                                </g>
                            </g>
                        </g>
                    </g>
                </g>
            </g>
        </g>
    </g>
</svg>
