<svg xmlns="http://www.w3.org/2000/svg" xmlns:xlink="http://www.w3.org/1999/xlink" width="162" height="162" viewBox="0 0 162 162">
    <defs>
        <circle id="vjuwux465a" cx="81" cy="81" r="81"/>
    </defs>
    <g fill="none" fill-rule="evenodd">
        <g>
            <g>
                <g>
                    <g transform="translate(-976 -133) translate(231 101) translate(674) translate(71 32)">
                        <mask id="8mf7dqm1lb" fill="#fff">
                            <use xlink:href="#vjuwux465a"/>
                        </mask>
                        <use fill="#D8D8D8" xlink:href="#vjuwux465a"/>
                        <g mask="url(#8mf7dqm1lb)">
                            <g fill-rule="nonzero">
                                <path fill="#2196F3" d="M91 0C40.82 0 0 40.82 0 91s40.82 91 91 91 91-40.82 91-91S141.18 0 91 0z" transform="translate(-10 -10)"/>
                                <g>
                                    <path fill="#FFC843" d="M34.887 101c.748 0 1.495-.192 2.164-.577 1.335-.767 2.157-2.182 2.157-3.712v-7.443h27.025C79.338 89.268 90 78.686 90 65.68c0-4.842-1.467-9.495-4.243-13.454-1.062-1.516-2.3-2.906-3.677-4.131-.808-.719-1.84-1.094-2.883-1.094-.597 0-1.197.122-1.762.373-1.556.69-2.56 2.224-2.56 3.916v7.742c0 6.977-5.718 12.652-12.747 12.652h-22.92V63c0-1.53-.822-2.944-2.157-3.711-.67-.385-1.416-.577-2.164-.577-.742 0-1.485.19-2.152.57L3.168 76.137C1.828 76.902 1 78.32 1 79.857c0 1.535.827 2.953 2.168 3.719l29.567 16.855c.666.38 1.41.569 2.152.569z" transform="translate(-10 -10) translate(45 40)"/>
                                    <path fill="#FFF" d="M75.42 52.71c.56-.25 1.156-.372 1.748-.372 1.034 0 2.058.375 2.86 1.092 1.366 1.22 2.593 2.606 3.646 4.118 2.753 3.948 4.208 8.587 4.208 13.414 0 2.822-.5 5.529-1.418 8.038C88.704 75.403 90 71.162 90 66.624c0-4.828-1.455-9.466-4.208-13.414-1.054-1.512-2.28-2.897-3.647-4.119-.801-.716-1.824-1.091-2.86-1.091-.591 0-1.187.123-1.747.372C75.995 49.06 75 50.59 75 52.276v.653c.135-.079.274-.154.42-.219z" transform="translate(-10 -10) translate(45 40)"/>
                                    <path fill="#FFB400" d="M37.937 96.14L8.532 79.394c-1.334-.76-2.157-2.17-2.157-3.696 0-.236.022-.469.06-.698l-2.278 1.297C2.823 77.057 2 78.467 2 79.993c0 1.526.823 2.934 2.157 3.695l29.405 16.746c.662.377 1.402.566 2.14.566.744 0 1.488-.191 2.153-.573C39.183 99.665 40 98.259 40 96.739v-.036c-.713-.012-1.424-.2-2.063-.563z" transform="translate(-10 -10) translate(45 40)"/>
                                    <path fill="#76FFD9" d="M56.114 1c-.749 0-1.496.193-2.166.578-1.334.766-2.155 2.18-2.155 3.711v7.442H24.767C11.662 12.731 1 23.314 1 36.321c0 4.842 1.467 9.494 4.243 13.454 1.062 1.516 2.3 2.906 3.677 4.13.808.72 1.84 1.095 2.884 1.095.596 0 1.196-.123 1.761-.374 1.557-.69 2.559-2.224 2.559-3.915v-7.743c0-6.976 5.719-12.652 12.748-12.652h22.92V39c0 1.53.822 2.946 2.156 3.712.67.385 1.418.577 2.166.577.742 0 1.485-.19 2.152-.57l29.566-16.855C89.172 25.098 90 23.68 90 22.144s-.827-2.954-2.168-3.72L58.266 1.57C57.6 1.19 56.856 1 56.114 1z" transform="translate(-10 -10) translate(45 40)"/>
                                    <path fill="#5DE0BF" d="M16.58 50.29c-.56.25-1.155.372-1.747.372-1.036 0-2.059-.374-2.86-1.091-1.366-1.221-2.593-2.607-3.647-4.119-2.753-3.947-4.208-8.586-4.208-13.414 0-2.822.5-5.529 1.418-8.038C3.296 27.597 2 31.838 2 36.376c0 4.828 1.455 9.466 4.208 13.414 1.054 1.512 2.28 2.897 3.648 4.119.8.716 1.824 1.091 2.86 1.091.59 0 1.186-.122 1.746-.372C16.006 53.94 17 52.41 17 50.724v-.653c-.135.079-.274.154-.42.219z" transform="translate(-10 -10) translate(45 40)"/>
                                    <path fill="#FFF" d="M88.815 18.716L59.03 1.58C58.359 1.193 57.61 1 56.862 1c-.754 0-1.507.196-2.182.587-.729.423-1.305 1.041-1.68 1.766.628.06 1.247.25 1.811.576l30.747 17.689c1.394.803 2.255 2.29 2.255 3.903 0 .511-.087 1.01-.25 1.479l1.252-.721c1.352-.777 2.185-2.22 2.185-3.782 0-1.56-.833-3.003-2.185-3.78z" transform="translate(-10 -10) translate(45 40)"/>
                                    <g fill="#434C54">
                                        <path d="M8.433 55.505c1.083.96 2.477 1.489 3.927 1.489.832 0 1.638-.17 2.397-.507 2.121-.94 3.492-3.038 3.492-5.346v-7.72c0-6.086 5-11.038 11.145-11.038h21.297v7.081c0 2.083 1.128 4.025 2.944 5.068.894.513 1.913.784 2.947.784 1.026 0 2.039-.268 2.928-.775l29.507-16.805c1.827-1.04 2.962-2.986 2.962-5.078 0-2.091-1.135-4.038-2.962-5.077L59.51.775C58.62.268 57.607 0 56.582 0c-1.035 0-2.053.271-2.947.785-1.816 1.042-2.944 2.984-2.944 5.068v5.844H25.296C11.347 11.697 0 22.955 0 36.793c0 5.153 1.563 10.104 4.52 14.32 1.13 1.612 2.447 3.09 3.913 4.392zM25.296 14.85h28.55V5.853c0-.958.522-1.852 1.36-2.334.831-.477 1.909-.48 2.742-.005L87.455 20.32c.844.48 1.368 1.377 1.368 2.339 0 .96-.524 1.857-1.368 2.338L57.947 41.803c-.832.474-1.91.472-2.74-.005-.84-.482-1.36-1.376-1.36-2.334V29.23H29.393c-7.885 0-14.3 6.366-14.3 14.192v7.72c0 1.06-.634 2.028-1.616 2.462-.354.158-.73.237-1.118.237-.677 0-1.327-.246-1.83-.693-1.284-1.14-2.436-2.434-3.427-3.845-2.582-3.683-3.948-8.008-3.948-12.51 0-12.1 9.933-21.943 22.141-21.943zM83.545 47.495c-1.08-.96-2.476-1.49-3.926-1.49-.832 0-1.638.171-2.398.508-2.121.94-3.492 3.038-3.492 5.345v7.72c0 6.087-4.999 11.039-11.144 11.039H41.287v-7.081c0-2.084-1.127-4.026-2.944-5.069-.895-.513-1.913-.784-2.946-.784-1.026 0-2.039.268-2.929.775L2.961 75.263C1.134 76.305 0 78.25 0 80.341c0 2.092 1.135 4.038 2.96 5.078l29.508 16.805c.89.508 1.903.776 2.93.776 1.032 0 2.05-.271 2.946-.785 1.816-1.042 2.943-2.984 2.943-5.068v-5.844h25.395c13.949 0 25.297-11.259 25.297-25.096 0-5.154-1.564-10.105-4.52-14.32-1.132-1.613-2.448-3.09-3.914-4.392zM66.682 88.15h-28.55v8.998c0 .958-.521 1.852-1.36 2.334-.832.477-1.909.479-2.741.005L4.523 82.68c-.844-.48-1.368-1.377-1.368-2.339 0-.961.524-1.857 1.368-2.338l29.508-16.806c.415-.236.887-.361 1.366-.361.482 0 .958.126 1.375.365.839.482 1.36 1.376 1.36 2.335V73.77h24.453c7.885 0 14.3-6.366 14.3-14.192v-7.72c0-1.061.634-2.028 1.614-2.462.355-.158.732-.238 1.12-.238.677 0 1.327.246 1.83.694 1.283 1.139 2.435 2.432 3.426 3.845 2.583 3.682 3.948 8.007 3.948 12.509 0 12.1-9.933 21.943-22.141 21.943z" transform="translate(-10 -10) translate(45 40)"/>
                                    </g>
                                </g>
                            </g>
                        </g>
                    </g>
                </g>
            </g>
        </g>
    </g>
</svg>
