<svg xmlns="http://www.w3.org/2000/svg" xmlns:xlink="http://www.w3.org/1999/xlink" width="162" height="162" viewBox="0 0 162 162">
    <defs>
        <circle id="0l3fg7m5ma" cx="81" cy="81" r="81"/>
    </defs>
    <g fill="none" fill-rule="evenodd">
        <g>
            <g>
                <g transform="translate(-302 -3740) translate(231 3708) translate(71 32)">
                    <mask id="xx7py4bvpb" fill="#fff">
                        <use xlink:href="#0l3fg7m5ma"/>
                    </mask>
                    <use fill="#D8D8D8" xlink:href="#0l3fg7m5ma"/>
                    <g mask="url(#xx7py4bvpb)">
                        <g>
                            <path fill="#2196F3" fill-rule="nonzero" d="M91 0C40.82 0 0 40.82 0 91s40.82 91 91 91 91-40.82 91-91S141.18 0 91 0z" transform="translate(-10 -10)"/>
                            <g>
                                <path fill="#434C54" fill-rule="nonzero" d="M68.281 20.156h-2.187V11.72C66.094 5.257 60.837 0 54.375 0h-28.75c-6.462 0-11.719 5.257-11.719 11.719v8.437H11.72C5.257 20.156 0 25.413 0 31.875v18.75c0 6.462 5.257 11.719 11.719 11.719h2.187v10.625c0 3.877 3.154 7.031 7.031 7.031h38.126c3.877 0 7.03-3.154 7.03-7.031V62.344h2.188C74.743 62.344 80 57.087 80 50.625v-18.75c0-6.462-5.257-11.719-11.719-11.719zM18.594 11.72c0-3.877 3.154-7.031 7.031-7.031h28.75c3.877 0 7.031 3.154 7.031 7.03v8.438H18.594V11.72zm42.812 61.25c0 1.292-1.051 2.344-2.343 2.344H20.937c-1.292 0-2.343-1.052-2.343-2.344V49.844h42.812v23.125zm13.907-22.344c0 3.877-3.155 7.031-7.032 7.031h-2.187v-7.812H67.5c1.294 0 2.344-1.05 2.344-2.344 0-1.294-1.05-2.344-2.344-2.344h-55c-1.294 0-2.344 1.05-2.344 2.344 0 1.294 1.05 2.344 2.344 2.344h1.406v7.812H11.72c-3.877 0-7.031-3.154-7.031-7.031v-18.75c0-3.877 3.154-7.031 7.03-7.031h56.563c3.877 0 7.031 3.154 7.031 7.031v18.75z" transform="translate(-10 -10) translate(51 51)"/>
                                <path fill="#FFC843" d="M18.594 11.719c0-3.877 3.154-7.031 7.031-7.031h28.75c3.877 0 7.031 3.154 7.031 7.03v8.438H18.594V11.72z" transform="translate(-10 -10) translate(51 51)"/>
                                <path fill="#2ECAAA" d="M61.406 72.969c0 1.292-1.051 2.344-2.343 2.344H20.937c-1.292 0-2.343-1.052-2.343-2.344V49.844h42.812v23.125z" transform="translate(-10 -10) translate(51 51)"/>
                                <path fill="#FFC843" d="M75.313 50.625c0 3.877-3.155 7.031-7.032 7.031h-2.187v-7.812H67.5c1.294 0 2.344-1.05 2.344-2.344 0-1.294-1.05-2.344-2.344-2.344h-55c-1.294 0-2.344 1.05-2.344 2.344 0 1.294 1.05 2.344 2.344 2.344h1.406v7.812H11.72c-3.877 0-7.031-3.154-7.031-7.031v-18.75c0-3.877 3.154-7.031 7.03-7.031h56.563c3.877 0 7.031 3.154 7.031 7.031v18.75z" transform="translate(-10 -10) translate(51 51)"/>
                                <path fill="#FFF" fill-rule="nonzero" d="M46.545 56h-13.09C32.099 56 31 56.895 31 58s1.099 2 2.455 2h13.09C47.901 60 49 59.105 49 58s-1.099-2-2.455-2zM46.545 65h-13.09C32.099 65 31 65.895 31 67s1.099 2 2.455 2h13.09C47.901 69 49 68.105 49 67s-1.099-2-2.455-2zM19.692 31h-7.384C11.033 31 10 31.895 10 33s1.033 2 2.308 2h7.384C20.967 35 22 34.105 22 33s-1.033-2-2.308-2z" transform="translate(-10 -10) translate(51 51)"/>
                            </g>
                        </g>
                    </g>
                </g>
            </g>
        </g>
    </g>
</svg>
