<svg xmlns="http://www.w3.org/2000/svg" xmlns:xlink="http://www.w3.org/1999/xlink" width="162" height="162" viewBox="0 0 162 162">
    <defs>
        <circle id="yj6tmtsq1a" cx="81" cy="81" r="81"/>
    </defs>
    <g fill="none" fill-rule="evenodd">
        <g>
            <g>
                <g>
                    <g transform="translate(-976 -3740) translate(231 3708) translate(674) translate(71 32)">
                        <mask id="5eelt54mab" fill="#fff">
                            <use xlink:href="#yj6tmtsq1a"/>
                        </mask>
                        <use fill="#D8D8D8" xlink:href="#yj6tmtsq1a"/>
                        <g mask="url(#5eelt54mab)">
                            <g fill-rule="nonzero">
                                <path fill="#2196F3" d="M91 0C40.82 0 0 40.82 0 91s40.82 91 91 91 91-40.82 91-91S141.18 0 91 0z" transform="translate(-10 -10)"/>
                                <g>
                                    <g>
                                        <path fill="#FFB400" d="M35 52L43 52 43 64 35 64z" transform="translate(-10 -10) translate(38 57) translate(28)"/>
                                        <path fill="#FFB400" d="M77 49.829C77 53.237 74.222 56 70.796 56H7.204C3.778 56 1 53.237 1 49.829V8.17C1 4.763 3.778 2 7.204 2h63.591C74.222 2 77 4.763 77 8.171V49.83z" transform="translate(-10 -10) translate(38 57) translate(28)"/>
                                        <path fill="#FFF" d="M8.432 48C7.642 48 7 47.365 7 46.585V8.46C7 7.655 7.643 7 8.432 7h62.136C71.358 7 72 7.655 72 8.46v38.125c0 .78-.643 1.415-1.432 1.415H8.432z" transform="translate(-10 -10) translate(38 57) translate(28)"/>
                                        <path fill="#D8E0EA" d="M69.578 7H51v41h18.578c.784 0 1.422-.635 1.422-1.416V8.46C71 7.655 70.362 7 69.578 7z" transform="translate(-10 -10) translate(38 57) translate(28)"/>
                                        <path fill="#E1EAF8" d="M11.642 46.585V8.46c0-.805.61-1.46 1.358-1.46H8.358C7.609 7 7 7.655 7 8.46v38.125C7 47.365 7.61 48 8.358 48H13c-.749 0-1.358-.635-1.358-1.415z" transform="translate(-10 -10) translate(38 57) translate(28)"/>
                                        <path fill="#76FFD9" d="M30 56h19c-.283-2.254-2.212-4-4.554-4h-9.893c-2.341 0-4.27 1.746-4.553 4z" transform="translate(-10 -10) translate(38 57) translate(28)"/>
                                        <path fill="#FFC843" d="M70.66 2H66c3.502 0 6.34 2.763 6.34 6.171V49.83C72.34 53.237 69.502 56 66 56h4.66c3.501 0 6.34-2.763 6.34-6.171V8.17C77 4.763 74.161 2 70.66 2z" transform="translate(-10 -10) translate(38 57) translate(28)"/>
                                        <path fill="#FFB400" d="M56 64c0 1.657-1.437 3-3.21 3H25.21C23.438 67 22 65.657 22 64s1.438-3 3.21-3H52.79C54.563 61 56 62.343 56 64z" transform="translate(-10 -10) translate(38 57) translate(28)"/>
                                        <path fill="#FFC843" d="M52.847 61H48c1.742 0 3.153 1.343 3.153 3S49.742 67 48 67h4.847C54.588 67 56 65.657 56 64s-1.412-3-3.153-3z" transform="translate(-10 -10) translate(38 57) translate(28)"/>
                                        <path fill="#FFA816" d="M28.745 64c0-1.657 1.457-3 3.255-3h-6.745C23.457 61 22 62.343 22 64s1.458 3 3.255 3H32c-1.798 0-3.255-1.343-3.255-3z" transform="translate(-10 -10) translate(38 57) translate(28)"/>
                                        <path fill="#5DE0BF" d="M70.568 7H8.432C7.642 7 7 7.698 7 8.556V13h65V8.555C72 7.698 71.357 7 70.568 7z" transform="translate(-10 -10) translate(38 57) translate(28)"/>
                                        <path fill="#00C395" d="M11.642 8.555C11.642 7.698 12.252 7 13 7H8.358C7.609 7 7 7.698 7 8.555V13h4.642V8.555z" transform="translate(-10 -10) translate(38 57) translate(28)"/>
                                        <path fill="#E1EAF8" d="M69.661 7H65c.738 0 1.338.655 1.338 1.46v38.124c0 .78-.6 1.416-1.338 1.416h4.661C70.4 48 71 47.365 71 46.584V8.46C71 7.655 70.4 7 69.661 7z" transform="translate(-10 -10) translate(38 57) translate(28)"/>
                                        <path fill="#76FFD9" d="M69.661 7H65c.738 0 1.338.698 1.338 1.556V13H71V8.555C71 7.698 70.4 7 69.661 7zM44 28.167C44 29.179 43.16 30 42.125 30h-26.25C14.839 30 14 29.179 14 28.167v-7.334c0-1.012.84-1.833 1.875-1.833h26.25c1.036 0 1.875.821 1.875 1.833v7.334z" transform="translate(-10 -10) translate(38 57) translate(28)"/>
                                        <path fill="#434C54" d="M70.634 0H7.366C3.305 0 0 3.333 0 7.43v42.02c0 4.096 3.305 7.43 7.366 7.43h26.507v3.158h-8.7c-2.433 0-4.414 2.01-4.414 4.481 0 2.47 1.98 4.481 4.414 4.481h27.653c2.434 0 4.414-2.01 4.414-4.48 0-2.471-1.98-4.482-4.414-4.482h-8.7V56.88h26.507c4.062 0 7.367-3.333 7.367-7.43V7.43C78 3.333 74.695 0 70.634 0zM52.826 62.45c1.118 0 2.027.929 2.027 2.07 0 1.14-.909 2.069-2.027 2.069H25.174c-1.118 0-2.027-.929-2.027-2.07 0-1.14.909-2.069 2.027-2.069h27.652zm-16.565-2.412V56.88h5.478v3.158H36.26zM75.612 49.45c0 2.768-2.233 5.02-4.978 5.02H7.366c-2.745 0-4.978-2.252-4.978-5.02V7.43c0-2.767 2.233-5.019 4.978-5.019h63.267c2.746 0 4.98 2.252 4.98 5.02v42.018z" transform="translate(-10 -10) translate(38 57) translate(28)"/>
                                        <path fill="#C1C8D2" d="M15.178 36h29.644c.65 0 1.178-.448 1.178-1s-.527-1-1.178-1H15.178c-.65 0-1.178.448-1.178 1s.527 1 1.178 1zM15.178 41h29.644c.65 0 1.178-.448 1.178-1s-.527-1-1.178-1H15.178c-.65 0-1.178.448-1.178 1s.527 1 1.178 1z" transform="translate(-10 -10) translate(38 57) translate(28)"/>
                                        <g fill="#969BA1">
                                            <path d="M5.625 6.023h10.163c.634 0 1.147-.539 1.147-1.203 0-.665-.513-1.203-1.147-1.203H5.625c-.634 0-1.147.538-1.147 1.203 0 .664.513 1.203 1.147 1.203zM5.625 11.318h10.163c.634 0 1.147-.54 1.147-1.204 0-.664-.513-1.203-1.147-1.203H5.625c-.634 0-1.147.539-1.147 1.203 0 .665.513 1.204 1.147 1.204zM5.625 16.612h10.163c.634 0 1.147-.538 1.147-1.203 0-.664-.513-1.204-1.147-1.204H5.625c-.634 0-1.147.54-1.147 1.204 0 .665.513 1.203 1.147 1.203zM5.625 21.907h10.163c.634 0 1.147-.539 1.147-1.203 0-.665-.513-1.204-1.147-1.204H5.625c-.634 0-1.147.539-1.147 1.204 0 .664.513 1.203 1.147 1.203zM5.625 27.201h10.163c.634 0 1.147-.539 1.147-1.203 0-.665-.513-1.203-1.147-1.203H5.625c-.634 0-1.147.538-1.147 1.203 0 .664.513 1.203 1.147 1.203zM.09 1.237v29.52c0 .665.514 1.204 1.147 1.204s1.146-.539 1.146-1.203V1.237C2.383.572 1.87.034 1.237.034.604.034.091.572.091 1.237z" transform="translate(-10 -10) translate(38 57) translate(28) translate(51 14)"/>
                                        </g>
                                    </g>
                                    <g>
                                        <path fill="#FFB400" d="M36 52L44 52 44 64 36 64z" transform="translate(-10 -10) translate(38 57)"/>
                                        <path fill="#FFB400" d="M78 49.829C78 53.237 75.186 56 71.714 56H7.286C3.814 56 1 53.237 1 49.829V8.17C1 4.763 3.814 2 7.286 2h64.428C75.186 2 78 4.763 78 8.171V49.83z" transform="translate(-10 -10) translate(38 57)"/>
                                        <path fill="#FFF" d="M8.432 48C7.642 48 7 47.365 7 46.585V8.46C7 7.655 7.643 7 8.432 7h62.136C71.358 7 72 7.655 72 8.46v38.125c0 .78-.643 1.415-1.432 1.415H8.432z" transform="translate(-10 -10) translate(38 57)"/>
                                        <path fill="#D8E0EA" d="M70.578 7H52v41h18.578c.784 0 1.422-.635 1.422-1.416V8.46C72 7.655 71.362 7 70.578 7z" transform="translate(-10 -10) translate(38 57)"/>
                                        <path fill="#E1EAF8" d="M11.642 46.585V8.46c0-.805.61-1.46 1.358-1.46H8.358C7.609 7 7 7.655 7 8.46v38.125C7 47.365 7.61 48 8.358 48H13c-.749 0-1.358-.635-1.358-1.415z" transform="translate(-10 -10) translate(38 57)"/>
                                        <path fill="#76FFD9" d="M30 56h19c-.283-2.254-2.212-4-4.554-4h-9.893c-2.341 0-4.27 1.746-4.553 4z" transform="translate(-10 -10) translate(38 57)"/>
                                        <path fill="#FFC843" d="M71.66 2H67c3.502 0 6.34 2.763 6.34 6.171V49.83C73.34 53.237 70.502 56 67 56h4.66c3.501 0 6.34-2.763 6.34-6.171V8.17C78 4.763 75.161 2 71.66 2z" transform="translate(-10 -10) translate(38 57)"/>
                                        <path fill="#FFB400" d="M56 64c0 1.657-1.437 3-3.21 3H25.21C23.438 67 22 65.657 22 64s1.438-3 3.21-3H52.79C54.563 61 56 62.343 56 64z" transform="translate(-10 -10) translate(38 57)"/>
                                        <path fill="#FFC843" d="M53.847 61H49c1.742 0 3.153 1.343 3.153 3S50.742 67 49 67h4.847C55.588 67 57 65.657 57 64s-1.412-3-3.153-3z" transform="translate(-10 -10) translate(38 57)"/>
                                        <path fill="#FFA816" d="M29.745 64c0-1.657 1.457-3 3.255-3h-6.745C24.457 61 23 62.343 23 64s1.458 3 3.255 3H33c-1.798 0-3.255-1.343-3.255-3z" transform="translate(-10 -10) translate(38 57)"/>
                                        <path fill="#5DE0BF" d="M70.568 7H8.432C7.642 7 7 7.698 7 8.556V13h65V8.555C72 7.698 71.357 7 70.568 7z" transform="translate(-10 -10) translate(38 57)"/>
                                        <path fill="#00C395" d="M11.642 8.555C11.642 7.698 12.252 7 13 7H8.358C7.609 7 7 7.698 7 8.555V13h4.642V8.555z" transform="translate(-10 -10) translate(38 57)"/>
                                        <path fill="#E1EAF8" d="M70.661 7H66c.738 0 1.338.655 1.338 1.46v38.124c0 .78-.6 1.416-1.338 1.416h4.661C71.4 48 72 47.365 72 46.584V8.46C72 7.655 71.4 7 70.661 7z" transform="translate(-10 -10) translate(38 57)"/>
                                        <path fill="#76FFD9" d="M70.661 7H66c.738 0 1.338.698 1.338 1.556V13H72V8.555C72 7.698 71.4 7 70.661 7zM45 28.167C45 29.179 44.16 30 43.125 30h-26.25C15.839 30 15 29.179 15 28.167v-7.334c0-1.012.84-1.833 1.875-1.833h26.25c1.036 0 1.875.821 1.875 1.833v7.334z" transform="translate(-10 -10) translate(38 57)"/>
                                        <path fill="#434C54" d="M71.54 0H7.46C3.347 0 0 3.333 0 7.43v42.02c0 4.096 3.347 7.43 7.46 7.43h26.848v3.158h-8.812c-2.465 0-4.47 2.01-4.47 4.481 0 2.47 2.005 4.481 4.47 4.481h28.008c2.465 0 4.47-2.01 4.47-4.48 0-2.471-2.005-4.482-4.47-4.482h-8.812V56.88H71.54c4.114 0 7.461-3.333 7.461-7.43V7.43C79 3.333 75.653 0 71.54 0zM53.504 62.45c1.132 0 2.052.929 2.052 2.07 0 1.14-.92 2.069-2.052 2.069H25.496c-1.132 0-2.052-.929-2.052-2.07 0-1.14.92-2.069 2.052-2.069h28.008zm-16.778-2.412V56.88h5.548v3.158h-5.548zM76.582 49.45c0 2.768-2.262 5.02-5.042 5.02H7.46c-2.78 0-5.042-2.252-5.042-5.02V7.43c0-2.767 2.262-5.019 5.042-5.019H71.54c2.78 0 5.043 2.252 5.043 5.02v42.018z" transform="translate(-10 -10) translate(38 57)"/>
                                        <path fill="#C1C8D2" d="M14.215 36h30.57c.671 0 1.215-.448 1.215-1s-.544-1-1.215-1h-30.57c-.671 0-1.215.448-1.215 1s.544 1 1.215 1zM14.215 41h30.57c.671 0 1.215-.448 1.215-1s-.544-1-1.215-1h-30.57c-.671 0-1.215.448-1.215 1s.544 1 1.215 1z" transform="translate(-10 -10) translate(38 57)"/>
                                        <g fill="#969BA1">
                                            <path d="M5.956 6.023h10.76c.672 0 1.215-.539 1.215-1.203 0-.665-.543-1.203-1.214-1.203H5.956c-.671 0-1.214.538-1.214 1.203 0 .664.543 1.203 1.214 1.203zM5.956 11.318h10.76c.672 0 1.215-.54 1.215-1.204 0-.664-.543-1.203-1.214-1.203H5.956c-.671 0-1.214.539-1.214 1.203 0 .665.543 1.204 1.214 1.204zM5.956 16.612h10.76c.672 0 1.215-.538 1.215-1.203 0-.664-.543-1.204-1.214-1.204H5.956c-.671 0-1.214.54-1.214 1.204 0 .665.543 1.203 1.214 1.203zM5.956 21.907h10.76c.672 0 1.215-.539 1.215-1.203 0-.665-.543-1.204-1.214-1.204H5.956c-.671 0-1.214.539-1.214 1.204 0 .664.543 1.203 1.214 1.203zM5.956 27.201h10.76c.672 0 1.215-.539 1.215-1.203 0-.665-.543-1.203-1.214-1.203H5.956c-.671 0-1.214.538-1.214 1.203 0 .664.543 1.203 1.214 1.203zM.096 1.237v29.52c0 .665.543 1.204 1.214 1.204.67 0 1.213-.539 1.213-1.203V1.237C2.523.572 1.98.034 1.31.034S.096.572.096 1.237z" transform="translate(-10 -10) translate(38 57) translate(51 14)"/>
                                        </g>
                                    </g>
                                </g>
                            </g>
                        </g>
                    </g>
                </g>
            </g>
        </g>
    </g>
</svg>
