<svg xmlns="http://www.w3.org/2000/svg" xmlns:xlink="http://www.w3.org/1999/xlink" width="162" height="162" viewBox="0 0 162 162">
    <defs>
        <circle id="ajjl7zsana" cx="81" cy="81" r="81"/>
    </defs>
    <g fill="none" fill-rule="evenodd">
        <g>
            <g>
                <g>
                    <g transform="translate(-638 -133) translate(231 101) translate(336) translate(71 32)">
                        <mask id="09otgoifgb" fill="#fff">
                            <use xlink:href="#ajjl7zsana"/>
                        </mask>
                        <use fill="#D8D8D8" xlink:href="#ajjl7zsana"/>
                        <g mask="url(#09otgoifgb)">
                            <g fill-rule="nonzero">
                                <path fill="#2196F3" d="M91 0C40.82 0 0 40.82 0 91s40.82 91 91 91 91-40.82 91-91S141.18 0 91 0z" transform="translate(-10 -10)"/>
                                <g>
                                    <path fill="#FFC843" d="M79.178 56.982c-.596 0-1.196-.124-1.76-.379-1.557-.702-2.559-2.262-2.559-3.984V44.74c0-7.099-5.715-12.874-12.742-12.874H39.205v8.835c0 1.558-.822 2.998-2.156 3.777-.669.392-1.416.588-2.164.588-.742 0-1.485-.193-2.15-.58L3.178 27.335c-1.341-.779-2.168-2.222-2.168-3.785 0-1.562.827-3.005 2.168-3.784L32.734 2.615c.666-.387 1.409-.58 2.151-.58.748 0 1.495.196 2.164.587 1.334.78 2.156 2.22 2.156 3.777v7.574H66.22c13.1 0 23.758 10.767 23.758 24.003 0 4.927-1.467 9.66-4.241 13.69-1.062 1.543-2.299 2.957-3.675 4.203-.81.732-1.84 1.113-2.884 1.113z" transform="translate(-10 -10) translate(45 62)"/>
                                    <path fill="#FFF" d="M67.316 13.228h-3.624c12.266.9 21.978 11.479 21.978 24.355 0 5.013-1.461 9.828-4.226 13.928-1.058 1.57-3.828 4.42-3.914 4.488.284.236.6.44.943.598.563.26 1.161.385 1.755.385 1.04 0 2.067-.388 2.873-1.132 1.372-1.268 2.604-2.707 3.662-4.276 2.764-4.099 4.226-8.915 4.226-13.928 0-13.464-10.62-24.418-23.673-24.418z" transform="translate(-10 -10) translate(45 62)"/>
                                    <path fill="#FFB400" d="M39.238 38.304c-.673.392-1.424.587-2.177.587-.747 0-1.493-.192-2.163-.58L5.17 21.168c-.754-.435-1.346-1.078-1.722-1.834l-.256.148c-1.35.778-2.181 2.221-2.181 3.783 0 1.562.832 3.005 2.181 3.783L32.92 44.192c.67.387 1.417.58 2.163.58.752 0 1.504-.196 2.177-.587 1.342-.78 2.169-2.219 2.169-3.776v-2.223c-.063.04-.126.081-.19.118z" transform="translate(-10 -10) translate(45 62)"/>
                                    <path fill="#434C54" d="M79.766 58c-.813 0-1.601-.17-2.344-.506-2.061-.932-3.394-3.009-3.394-5.29v-7.91c0-6.35-5.098-11.514-11.365-11.514h-21.56v7.458c0 2.06-1.095 3.98-2.859 5.014-.874.511-1.87.782-2.88.782-1.002 0-1.992-.267-2.862-.772L2.876 28.04C1.102 27.01 0 25.084 0 23.017c0-2.067 1.102-3.992 2.876-5.024L32.503.773C33.372.266 34.362 0 35.365 0c1.01 0 2.005.27 2.879.782 1.764 1.033 2.859 2.955 2.859 5.014v6.19h25.673C80.685 11.986 92 23.432 92 37.501c0 5.235-1.556 10.267-4.5 14.55-1.126 1.638-2.439 3.141-3.9 4.466-1.055.957-2.416 1.483-3.834 1.483zm-41.48-28.047h24.377c7.82 0 14.181 6.433 14.181 14.34v7.911c0 1.17.681 2.236 1.734 2.712.377.17.776.256 1.188.256.719 0 1.41-.268 1.946-.754 1.3-1.178 2.467-2.515 3.47-3.974 2.618-3.808 4.002-8.284 4.002-12.943 0-12.51-10.052-22.687-22.408-22.687h-28.49V5.796c0-1.058-.56-2.043-1.461-2.572-.883-.517-2.026-.52-2.911-.004L4.287 20.44c-.907.528-1.471 1.515-1.471 2.577s.564 2.05 1.471 2.576l29.627 17.222c.884.513 2.026.512 2.91-.005.903-.529 1.463-1.514 1.463-2.572V29.953z" transform="translate(-10 -10) translate(45 62)"/>
                                </g>
                            </g>
                        </g>
                    </g>
                </g>
            </g>
        </g>
    </g>
</svg>
