<svg xmlns="http://www.w3.org/2000/svg" xmlns:xlink="http://www.w3.org/1999/xlink" width="162" height="162" viewBox="0 0 162 162">
    <defs>
        <circle id="qzlfc49qla" cx="81" cy="81" r="81"/>
    </defs>
    <g fill="none" fill-rule="evenodd">
        <g>
            <g>
                <g>
                    <g transform="translate(-976 -3286) translate(231 3254) translate(674) translate(71 32)">
                        <mask id="6qz5glutsb" fill="#fff">
                            <use xlink:href="#qzlfc49qla"/>
                        </mask>
                        <use fill="#D8D8D8" xlink:href="#qzlfc49qla"/>
                        <g mask="url(#6qz5glutsb)">
                            <g>
                                <path fill="#2196F3" fill-rule="nonzero" d="M91 0C40.82 0 0 40.82 0 91s40.82 91 91 91 91-40.82 91-91S141.18 0 91 0z" transform="translate(-10 -10)"/>
                                <g>
                                    <path fill="#FFF" fill-rule="nonzero" d="M9.23 22.941c0 1.69 1.378 3.059 3.078 3.059s3.077-1.37 3.077-3.059v-7.647h7.538c1.7 0 3.077-1.37 3.077-3.059 0-1.69-1.378-3.059-3.077-3.059h-7.538V3.06c0-1.69-1.378-3.059-3.077-3.059-1.7 0-3.077 1.37-3.077 3.059v6.117H3.077c-1.7 0-3.077 1.37-3.077 3.06 0 1.689 1.378 3.058 3.077 3.058H9.23v7.647zM65 32c-1.657 0-3 1.46-3 3.26v8.48c0 1.8 1.343 3.26 3 3.26s3-1.46 3-3.26v-8.48c0-1.8-1.343-3.26-3-3.26zM55.09 15.182h1.546c3.409 0 6.182 2.773 6.182 6.182v1.545c0 1.707 1.384 3.091 3.091 3.091C67.616 26 69 24.616 69 22.91v-1.546C69 14.546 63.454 9 56.636 9h-1.545C53.384 9 52 10.384 52 12.09c0 1.708 1.384 3.092 3.09 3.092zM13 32c-1.657 0-3 1.46-3 3.26v8.48c0 1.8 1.343 3.26 3 3.26s3-1.46 3-3.26v-8.48c0-1.8-1.343-3.26-3-3.26zM22.91 62.761h-1.546c-3.409 0-6.182-2.798-6.182-6.238v-1.404c0-1.723-1.384-3.119-3.091-3.119C10.384 52 9 53.396 9 55.12v1.403C9 63.403 14.546 69 21.364 69h1.545C24.616 69 26 67.604 26 65.88c0-1.722-1.384-3.119-3.09-3.119zM74.941 62.615h-6.117v-7.538c0-1.7-1.37-3.077-3.06-3.077-1.689 0-3.058 1.378-3.058 3.077v7.538h-7.647c-1.69 0-3.059 1.378-3.059 3.077 0 1.7 1.37 3.077 3.059 3.077h7.647v6.154c0 1.7 1.37 3.077 3.059 3.077 1.69 0 3.059-1.378 3.059-3.077V68.77h6.117c1.69 0 3.059-1.377 3.059-3.077s-1.37-3.077-3.059-3.077zM42.74 10h-8.48c-1.8 0-3.26 1.343-3.26 3s1.46 3 3.26 3h8.48c1.8 0 3.26-1.343 3.26-3s-1.46-3-3.26-3zM42.74 62h-8.48c-1.8 0-3.26 1.343-3.26 3s1.46 3 3.26 3h8.48c1.8 0 3.26-1.343 3.26-3s-1.46-3-3.26-3z" transform="translate(-10 -10) translate(52 52)"/>
                                </g>
                            </g>
                        </g>
                    </g>
                </g>
            </g>
        </g>
    </g>
</svg>
