<svg xmlns="http://www.w3.org/2000/svg" xmlns:xlink="http://www.w3.org/1999/xlink" width="162" height="162" viewBox="0 0 162 162">
    <defs>
        <circle id="gnkcrz1woa" cx="81" cy="81" r="81"/>
    </defs>
    <g fill="none" fill-rule="evenodd">
        <g>
            <g>
                <g>
                    <g transform="translate(-640 -2378) translate(231 2346) translate(338) translate(71 32)">
                        <mask id="tawrjxmljb" fill="#fff">
                            <use xlink:href="#gnkcrz1woa"/>
                        </mask>
                        <use fill="#D8D8D8" xlink:href="#gnkcrz1woa"/>
                        <g mask="url(#tawrjxmljb)">
                            <g fill-rule="nonzero">
                                <path fill="#2196F3" d="M91 0C40.82 0 0 40.82 0 91s40.82 91 91 91 91-40.82 91-91S141.18 0 91 0z" transform="translate(-10 -10)"/>
                                <g>
                                    <path fill="#FFF" d="M105 76.058c0 3.834-3.105 6.942-6.934 6.942H7.934C4.104 83 1 79.892 1 76.058V8.943C1 5.108 4.105 2 7.934 2h90.132C101.896 2 105 5.108 105 8.943v67.115z" transform="translate(-10 -10) translate(38 49)"/>
                                    <path fill="#FFF" d="M10 12L96 12 96 72 10 72z" transform="translate(-10 -10) translate(38 49)"/>
                                    <g fill="#FFC843">
                                        <path d="M15 16c-4.41 0-8-3.59-8-8s3.59-8 8-8 8 3.59 8 8-3.59 8-8 8zm0-11.2c-1.763 0-3.2 1.437-3.2 3.2 0 1.763 1.437 3.2 3.2 3.2 1.763 0 3.2-1.437 3.2-3.2 0-1.763-1.437-3.2-3.2-3.2zM27.5 33c-1.38 0-2.5-1.092-2.5-2.437v-1.626c0-2.239-1.87-4.062-4.167-4.062H9.167C6.87 24.875 5 26.698 5 28.937v1.626C5 31.908 3.88 33 2.5 33S0 31.908 0 30.563v-1.626C0 24.007 4.11 20 9.167 20h11.666C25.89 20 30 24.007 30 28.937v1.626C30 31.908 28.88 33 27.5 33z" transform="translate(-10 -10) translate(38 49) translate(17 24)"/>
                                    </g>
                                    <path fill="#434C54" d="M98.447 0H8.553C3.837 0 0 3.837 0 8.555v66.89C0 80.162 3.837 84 8.553 84h89.894c4.716 0 8.553-3.838 8.553-8.555V8.555C107 3.837 103.163 0 98.447 0zm5.278 75.445c0 2.914-2.368 5.284-5.278 5.284H8.553c-2.91 0-5.278-2.37-5.278-5.284V8.555c0-2.914 2.368-5.285 5.278-5.285h89.894c2.91 0 5.278 2.371 5.278 5.285v66.89z" transform="translate(-10 -10) translate(38 49)"/>
                                    <g fill="#C1C8D2">
                                        <path d="M30.056 0H3.944C2.318 0 1 1.344 1 3c0 1.657 1.318 3 2.944 3h26.112C31.682 6 33 4.657 33 3c0-1.656-1.318-3-2.944-3zM30.056 14H3.944C2.318 14 1 15.343 1 17s1.318 3 2.944 3h26.112C31.682 20 33 18.657 33 17s-1.318-3-2.944-3zM30.056 27H3.944C2.318 27 1 28.343 1 30s1.318 3 2.944 3h26.112C31.682 33 33 31.657 33 30s-1.318-3-2.944-3z" transform="translate(-10 -10) translate(38 49) translate(58 24)"/>
                                    </g>
                                </g>
                            </g>
                        </g>
                    </g>
                </g>
            </g>
        </g>
    </g>
</svg>
