<svg xmlns="http://www.w3.org/2000/svg" xmlns:xlink="http://www.w3.org/1999/xlink" width="162" height="162" viewBox="0 0 162 162">
    <defs>
        <circle id="k48fvaj7ia" cx="81" cy="81" r="81"/>
    </defs>
    <g fill="none" fill-rule="evenodd">
        <g>
            <g>
                <g>
                    <g transform="translate(-976 -2378) translate(231 2346) translate(674) translate(71 32)">
                        <mask id="s7t2a7jrub" fill="#fff">
                            <use xlink:href="#k48fvaj7ia"/>
                        </mask>
                        <use fill="#D8D8D8" xlink:href="#k48fvaj7ia"/>
                        <g mask="url(#s7t2a7jrub)">
                            <g fill-rule="nonzero">
                                <path fill="#2196F3" d="M91 0C40.82 0 0 40.82 0 91s40.82 91 91 91 91-40.82 91-91S141.18 0 91 0z" transform="translate(-10 -10)"/>
                                <g>
                                    <path fill="#FFF" d="M77.318 0H23.682C22.2 0 21 1.205 21 2.691V58.31C21 59.795 22.2 61 23.682 61h53.636C78.8 61 80 59.795 80 58.309V2.69C80 1.205 78.8 0 77.318 0zm-2.682 21.53h-8.045c-1.481 0-2.682 1.204-2.682 2.69 0 1.487 1.2 2.692 2.682 2.692h8.045v28.706h-33.97v-8.074c0-1.486-1.2-2.691-2.681-2.691s-2.682 1.205-2.682 2.691v8.074h-8.94V5.382h8.94v29.603c0 1.486 1.2 2.691 2.682 2.691 1.481 0 2.682-1.204 2.682-2.69v-8.074h13.409c1.48 0 2.682-1.205 2.682-2.692 0-1.486-1.201-2.69-2.682-2.69h-13.41V5.381h33.97V21.53z" transform="translate(-10 -10) translate(51 50)"/>
                                    <path fill="#FFC843" d="M79.225 72.114l-5.308-5.333c-1.036-1.041-2.717-1.041-3.753 0-1.037 1.041-1.037 2.73 0 3.771l.777.781H20.06l.778-.78c1.036-1.042 1.036-2.73 0-3.772-1.036-1.041-2.717-1.041-3.753 0l-5.308 5.333c-1.044 1.047-1.026 2.743 0 3.772l5.308 5.333c1.036 1.041 2.716 1.041 3.753 0 1.036-1.041 1.036-2.73 0-3.771l-.778-.782h50.882l-.777.782c-1.037 1.041-1.037 2.73 0 3.77 1.036 1.042 2.717 1.042 3.753 0l5.308-5.332c1.035-1.039 1.032-2.736 0-3.772z" transform="translate(-10 -10) translate(51 50)"/>
                                    <path fill="#76FFD9" d="M11.448 56.081l-.781.784V9.135l.78.784c1.042 1.045 2.73 1.045 3.772 0 1.041-1.045 1.041-2.739 0-3.784L9.886.784c-1.042-1.045-2.73-1.045-3.772 0L.781 6.135C-.26 7.18-.26 8.874.781 9.919s2.73 1.045 3.771 0l.781-.784v47.73l-.78-.784c-1.042-1.045-2.73-1.045-3.772 0-1.041 1.045-1.041 2.739 0 3.784l5.333 5.351c1.042 1.045 2.73 1.045 3.772 0l5.333-5.351c1.041-1.045 1.041-2.74 0-3.784-1.041-1.045-2.73-1.045-3.771 0z" transform="translate(-10 -10) translate(51 50)"/>
                                </g>
                            </g>
                        </g>
                    </g>
                </g>
            </g>
        </g>
    </g>
</svg>
