<svg xmlns="http://www.w3.org/2000/svg" xmlns:xlink="http://www.w3.org/1999/xlink" width="162" height="162" viewBox="0 0 162 162">
    <defs>
        <circle id="9dkf81xt2a" cx="81" cy="81" r="81"/>
    </defs>
    <g fill="none" fill-rule="evenodd">
        <g>
            <g>
                <g transform="translate(-638 -2832) translate(567 2800) translate(71 32)">
                    <mask id="copczfdntb" fill="#fff">
                        <use xlink:href="#9dkf81xt2a"/>
                    </mask>
                    <use fill="#D8D8D8" xlink:href="#9dkf81xt2a"/>
                    <g mask="url(#copczfdntb)">
                        <g fill-rule="nonzero">
                            <path fill="#2196F3" d="M91 0C40.82 0 0 40.82 0 91s40.82 91 91 91 91-40.82 91-91S141.18 0 91 0z" transform="translate(-10 -10)"/>
                            <g>
                                <path fill="#434C54" d="M25.507 46.423c.52-.494 12.918-15.25 13.416-15.84 1.624-1.925 1.384-4.82-.534-6.456-1.807-1.54-4.473-1.473-6.2.157l-2.558 2.415-.139-18.33c0-2.694-2.204-4.886-4.913-4.886-.621 0-1.216.116-1.764.327C22.32 1.632 20.361 0 18.024 0c-2.338 0-4.297 1.632-4.792 3.81-.548-.21-1.142-.327-1.764-.327-2.709 0-4.912 2.191-4.912 4.886v1.9c-.515-.182-1.067-.282-1.643-.282C2.203 9.987 0 12.179 0 14.873v25.746c0 2.339 1 4.449 2.595 5.934C1.028 47.629 0 49.426 0 51.459v33.915C0 86.272.732 87 1.635 87s1.635-.728 1.635-1.626V58.32h21.759v27.054c0 .898.732 1.626 1.635 1.626s1.635-.728 1.635-1.626V51.459c0-2.116-1.116-3.977-2.792-5.036z" transform="translate(-10 -10) translate(76 48)"/>
                                <path fill="#FFC843" d="M3.27 14.872c0-.9.737-1.633 1.643-1.633s1.643.732 1.643 1.633v7.361c0 .898.732 1.626 1.634 1.626.903 0 1.635-.728 1.635-1.626V8.37c0-.901.737-1.634 1.643-1.634s1.643.733 1.643 1.634v13.864c0 .898.732 1.626 1.635 1.626s1.635-.728 1.635-1.626V4.886c0-.901.737-1.634 1.643-1.634s1.643.733 1.643 1.634v17.347c0 .898.732 1.626 1.634 1.626.903 0 1.635-.728 1.635-1.626V8.37c0-.901.737-1.634 1.643-1.634s1.643.733 1.643 1.646l.156 20.59c.007.907.554 1.722 1.394 2.077.839.355 1.81.181 2.47-.443l4.199-3.963c.507-.478 1.29-.498 1.82-.046.564.48.634 1.33.157 1.896L23.544 43.754c-.934 1.108-2.304 1.743-3.758 1.743H8.176c-2.705 0-4.906-2.188-4.906-4.878V14.872zM25.03 55.068H3.27v-3.61c0-1.493 1.222-2.71 2.725-2.71h16.31c1.502 0 2.724 1.217 2.724 2.71v3.61z" transform="translate(-10 -10) translate(76 48)"/>
                            </g>
                        </g>
                    </g>
                </g>
            </g>
        </g>
    </g>
</svg>
