<svg xmlns="http://www.w3.org/2000/svg" xmlns:xlink="http://www.w3.org/1999/xlink" width="162" height="162" viewBox="0 0 162 162">
    <defs>
        <circle id="z037fjyx7a" cx="81" cy="81" r="81"/>
    </defs>
    <g fill="none" fill-rule="evenodd">
        <g>
            <g>
                <g transform="translate(-302 -2378) translate(231 2346) translate(71 32)">
                    <mask id="35gt62sb0b" fill="#fff">
                        <use xlink:href="#z037fjyx7a"/>
                    </mask>
                    <use fill="#D8D8D8" xlink:href="#z037fjyx7a"/>
                    <g mask="url(#35gt62sb0b)">
                        <g fill-rule="nonzero">
                            <path fill="#2196F3" d="M91 0C40.82 0 0 40.82 0 91s40.82 91 91 91 91-40.82 91-91S141.18 0 91 0z" transform="translate(-10 -21)"/>
                            <g>
                                <g>
                                    <path fill="#FFC843" d="M75.277 68.898c-5.585-5.264-12.86-8.25-20.567-8.463 11.446-4.524 19.527-15.54 19.527-28.413C74.237 15.116 60.3 1.41 43.105 1.41c-17.193 0-31.131 13.706-31.131 30.612 0 12.873 8.081 23.89 19.527 28.413-7.708.213-14.982 3.199-20.567 8.463-5.78 5.449-9.162 12.772-9.522 20.621-.015.321.105.634.33.866.226.233.539.365.866.365h80.995c.327 0 .64-.132.865-.365.226-.232.346-.545.331-.866-.36-7.849-3.741-15.172-9.522-20.621z" transform="translate(-10 -21) translate(48 53) translate(0 5)"/>
                                    <path fill="#FFF" d="M54.71 60.435c7.708.213 14.982 3.199 20.567 8.463 5.78 5.449 9.162 12.772 9.522 20.621.015.321-.105.634-.331.866-.226.233-.539.365-.866.365h-7.314c.327 0 .64-.132.865-.365.227-.232.345-.545.331-.866-.36-7.849-3.741-15.172-9.522-20.621-5.585-5.264-13.252-8.463-13.252-8.463" transform="translate(-10 -21) translate(48 53) translate(0 5)"/>
                                    <path fill="#FFB400" d="M31.501 60.435c-7.708.213-14.982 3.199-20.567 8.463-5.78 5.449-9.162 12.772-9.522 20.621-.015.321.105.634.33.866.227.233.539.365.866.365h7.314c-.326 0-.639-.132-.865-.365-.226-.232-.345-.545-.33-.866.359-7.849 3.74-15.172 9.521-20.621 5.586-5.264 13.253-8.463 13.253-8.463M26.554 56.48c-5.615-5.535-9.088-13.17-9.088-21.605 0-16.907 13.938-30.612 31.133-30.612 4.136 0 8.083.795 11.694 2.237-4.925-3.215-10.833-5.09-17.188-5.09-17.193 0-31.131 13.706-31.131 30.612 0 12.178 7.233 22.689 17.703 27.62-1.117-.979-2.16-2.036-3.123-3.161z" transform="translate(-10 -21) translate(48 53) translate(0 5)"/>
                                    <path fill="#FFF" d="M74.049 69.18c-5.54-5.265-12.754-8.25-20.4-8.463h-.199v.671c5.515 1.176 10.612 3.843 14.768 7.792 5.734 5.449 9.088 12.772 9.444 20.621.015.321-.103.634-.327.867-.225.232-.535.363-.859.363h5.83c.325 0 .635-.131.859-.363.224-.233.342-.546.328-.867-.357-7.849-3.71-15.172-9.444-20.621z" transform="translate(-10 -21) translate(48 53) translate(0 5)"/>
                                    <g fill="#434C54">
                                        <path d="M76.244 67.871c-4.594-4.33-10.323-7.2-16.493-8.325 4.017-2.352 7.48-5.535 10.17-9.377 3.747-5.35 5.727-11.625 5.727-18.147C75.648 14.366 61.05 0 43.105 0 25.161 0 10.563 14.366 10.563 32.022c0 6.522 1.98 12.797 5.726 18.147 2.691 3.842 6.154 7.025 10.17 9.377-6.17 1.125-11.898 3.995-16.493 8.325C3.918 73.573.38 81.238.003 89.456c-.032.707.233 1.405.728 1.913.489.503 1.173.791 1.877.791h80.995c.704 0 1.388-.288 1.876-.79.496-.51.76-1.207.729-1.916-.377-8.216-3.915-15.881-9.964-21.583zM2.834 89.34c.4-7.39 3.615-14.275 9.068-19.415 5.311-5.006 12.286-7.876 19.638-8.08.67-.018 1.234-.505 1.35-1.164.116-.66-.247-1.31-.87-1.557-5.442-2.15-10.082-5.806-13.42-10.572-3.412-4.874-5.216-10.59-5.216-16.529 0-16.101 13.333-29.201 29.721-29.201 16.389 0 29.722 13.1 29.722 29.201 0 5.94-1.804 11.655-5.217 16.529-3.337 4.766-7.977 8.421-13.419 10.572-.623.246-.987.897-.87 1.557.116.66.68 1.146 1.35 1.165 7.352.203 14.327 3.073 19.639 8.08 5.453 5.14 8.666 12.026 9.068 19.414H2.834z" transform="translate(-10 -21) translate(48 53) translate(0 5)"/>
                                        <path d="M52.464 36.115c-.779 0-1.41.631-1.41 1.41 0 4.726-3.897 8.572-8.686 8.572s-8.685-3.846-8.685-8.572c0-.779-.631-1.41-1.41-1.41-.78 0-1.411.631-1.411 1.41 0 6.282 5.161 11.393 11.506 11.393 6.345 0 11.507-5.111 11.507-11.393 0-.779-.632-1.41-1.41-1.41zM35.79 27.395c0-2.005-1.643-3.63-3.67-3.63-2.028 0-3.672 1.625-3.672 3.63s1.644 3.63 3.671 3.63c2.028 0 3.671-1.625 3.671-3.63zM56.288 27.395c0-2.005-1.643-3.63-3.671-3.63-2.027 0-3.671 1.625-3.671 3.63s1.644 3.63 3.671 3.63c2.028 0 3.671-1.625 3.671-3.63z" transform="translate(-10 -21) translate(48 53) translate(0 5)"/>
                                    </g>
                                </g>
                                <g>
                                    <g fill="#FFF">
                                        <path d="M15.563 0H9.337C4.19 0 0 4.19 0 9.338v6.225c0 1.72 1.394 3.112 3.112 3.112 1.719 0 3.113-1.391 3.113-3.113V9.338c0-1.719 1.398-3.113 3.113-3.113h6.225c1.718 0 3.112-1.391 3.112-3.112C18.675 1.39 17.281 0 15.562 0zM15.563 68.475H9.337c-1.714 0-3.112-1.394-3.112-3.112v-6.225c0-1.722-1.394-3.113-3.112-3.113C1.393 56.025 0 57.416 0 59.138v6.224C0 70.511 4.19 74.7 9.338 74.7h6.225c1.718 0 3.112-1.391 3.112-3.112 0-1.722-1.394-3.113-3.113-3.113zM65.362 0h-6.224c-1.719 0-3.113 1.391-3.113 3.112 0 1.722 1.394 3.113 3.113 3.113h6.224c1.715 0 3.113 1.394 3.113 3.113v6.225c0 1.72 1.394 3.112 3.113 3.112 1.718 0 3.112-1.391 3.112-3.113V9.338C74.7 4.189 70.51 0 65.362 0zM71.588 56.025c-1.719 0-3.113 1.391-3.113 3.113v6.224c0 1.719-1.398 3.113-3.112 3.113h-6.225c-1.719 0-3.113 1.391-3.113 3.113 0 1.72 1.394 3.112 3.113 3.112h6.224c5.149 0 9.338-4.19 9.338-9.338v-6.224c0-1.722-1.394-3.113-3.112-3.113z" transform="translate(-10 -21) translate(48 53) translate(5)"/>
                                    </g>
                                    <path fill="#F44336" d="M71.588 43.2H3.113C1.393 43.2 0 41.993 0 40.5s1.394-2.7 3.112-2.7h68.476c1.718 0 3.112 1.207 3.112 2.7s-1.394 2.7-3.112 2.7z" transform="translate(-10 -21) translate(48 53) translate(5)"/>
                                    <path fill="#D43A2F" d="M37.8 37.8H3.15C1.411 37.8 0 39.007 0 40.5s1.411 2.7 3.15 2.7H37.8v-5.4z" transform="translate(-10 -21) translate(48 53) translate(5)"/>
                                    <path fill="#FFF" d="M2.754 2.7C1.054 4.324 0 6.56 0 9.03v5.98C0 16.663 1.405 18 3.144 18s3.144-1.337 3.144-2.99V9.03c0-.82.35-1.564.912-2.102L2.754 2.7zM67.772 67.5c-.541.563-1.283.912-2.102.912h-5.98c-1.653 0-2.99 1.405-2.99 3.144s1.337 3.144 2.99 3.144h5.98c2.467 0 4.706-1.053 6.33-2.754L67.772 67.5zM3.019 56.7C1.349 56.7 0 58.014 0 59.64v5.878C0 68.078 1.126 70.39 2.922 72L7.2 67.835c-.706-.538-1.162-1.376-1.162-2.317V59.64c0-1.625-1.35-2.939-3.02-2.939zM65.518 0H59.64C58.014 0 56.7 1.35 56.7 3.019c0 1.67 1.314 3.019 2.94 3.019h5.878c.938 0 1.779.456 2.317 1.162L72 2.922C70.39 1.126 68.079 0 65.518 0z" transform="translate(-10 -21) translate(48 53) translate(5)"/>
                                </g>
                            </g>
                        </g>
                    </g>
                </g>
            </g>
        </g>
    </g>
</svg>
